<svg width="578" height="163" viewBox="0 0 578 163" fill="none" xmlns="http://www.w3.org/2000/svg">
<path d="M576.2 81.2998C576.2 125.427 540.444 161.2 496.336 161.2C473.64 161.2 455.76 148.783 439.032 136.919C433.956 133.319 420.29 126.655 402.918 124.443C385.588 122.237 364.668 124.471 344.928 138.501L344.919 138.508L344.116 137.36C344.88 138.453 344.917 138.505 344.918 138.508L344.917 138.509C344.916 138.51 344.914 138.511 344.911 138.513C344.907 138.516 344.901 138.52 344.893 138.525C344.876 138.537 344.851 138.554 344.82 138.576C344.756 138.62 344.661 138.685 344.538 138.77C344.292 138.938 343.929 139.183 343.46 139.495C342.522 140.118 341.158 141.007 339.45 142.071C336.036 144.199 331.236 147.037 325.695 149.871C314.673 155.509 300.487 161.261 288.401 161.2C276.045 161.138 261.66 154.98 250.508 148.976C244.901 145.957 240.051 142.943 236.603 140.685C234.878 139.555 233.503 138.613 232.557 137.952C232.084 137.622 231.718 137.361 231.469 137.183C231.345 137.093 231.249 137.025 231.185 136.979C231.153 136.955 231.128 136.937 231.112 136.925C231.103 136.919 231.096 136.913 231.092 136.91C231.09 136.909 231.088 136.907 231.087 136.906L231.085 136.905L230.988 136.834L230.905 136.748C229.324 135.107 225.014 132.292 218.691 129.512C212.423 126.756 204.327 124.101 195.294 122.7C177.235 119.899 155.553 122.118 137.129 138.397C122.729 152.502 103.01 161.2 81.2639 161.2C37.1558 161.2 1.3996 125.427 1.3996 81.2998C1.3996 37.1729 37.1558 1.39941 81.2639 1.39941C102.992 1.39945 120.003 7.40459 137.168 24.2402C138.533 25.5786 139.85 26.9657 141.116 28.3984C150.854 39.4171 167.797 44.4841 185.226 43.877C202.64 43.2703 220.155 37.0071 230.905 25.8516C245.433 10.7761 266.23 1.39948 288.407 1.39941C310.563 1.39941 330.685 10.1054 345.097 24.2402C346.441 25.5585 347.739 26.924 348.987 28.334C362.53 40.7162 379.194 44.4357 395.424 42.8691C411.698 41.2983 427.467 34.4129 438.999 25.7051C456.477 12.5075 473.652 1.39948 496.336 1.39941C540.444 1.39941 576.2 37.1729 576.2 81.2998Z" fill="url(#paint0_linear_2259_2863)" stroke="url(#paint1_linear_2259_2863)" stroke-width="2.8"/>
<defs>
<linearGradient id="paint0_linear_2259_2863" x1="43.6571" y1="149.766" x2="120.88" y2="-109.12" gradientUnits="userSpaceOnUse">
<stop stop-color="#0E8057"/>
<stop offset="1" stop-color="#C8ED04"/>
</linearGradient>
<linearGradient id="paint1_linear_2259_2863" x1="609.12" y1="127.615" x2="488.38" y2="-179.48" gradientUnits="userSpaceOnUse">
<stop stop-color="#FFFDEE"/>
<stop offset="1" stop-color="#E3EF26"/>
</linearGradient>
</defs>
</svg>
