<svg width="129" height="117" viewBox="0 0 129 117" fill="none" xmlns="http://www.w3.org/2000/svg">
<path d="M124.542 8.41081C117.877 -0.726249 105.066 -2.72977 95.9292 3.93582C91.2512 7.3485 88.443 12.372 87.7109 17.6885C85.4904 25.0223 79.1298 31.5184 68.7297 32.3436C68.2509 32.2383 67.7686 32.1501 67.2837 32.0792C62.1654 31.3307 56.5963 32.6296 52.0873 35.919C47.4093 39.3317 44.6012 44.3551 43.869 49.6717C41.6486 57.0054 35.2879 63.5016 24.8878 64.3268C24.409 64.2214 23.9267 64.1332 23.4418 64.0623C18.3235 63.3139 12.9199 64.4921 8.41087 67.7815C-0.726192 74.4471 -2.72971 87.2576 3.93588 96.3947C10.6015 105.532 23.4121 107.535 32.5491 100.87C37.0581 97.5803 39.8299 92.7944 40.6799 87.6921C43.5021 74.8818 57.9873 72.1728 60.6204 72.6341C69.1948 74.1362 75.1949 81.3316 76.0201 91.7318C75.9148 92.2105 75.8266 92.6929 75.7557 93.1778C75.0072 98.296 76.1854 103.7 79.4748 108.209C86.1404 117.346 98.951 119.349 108.088 112.684C117.225 106.018 119.229 93.2075 112.563 84.0704C109.274 79.5614 104.488 76.7896 99.3854 75.9396C86.5752 73.1175 84.0606 58.342 84.5218 55.7089C87.344 42.8986 101.829 40.1896 104.462 40.6509C109.748 41.577 115.389 40.4367 120.067 37.024C129.205 30.3585 131.208 17.5479 124.542 8.41081Z" fill="url(#paint0_linear_2259_2856)"/>
<defs>
<linearGradient id="paint0_linear_2259_2856" x1="64.3668" y1="0.366698" x2="129.951" y2="99.3237" gradientUnits="userSpaceOnUse">
<stop offset="0.0994877" stop-color="#0E8057"/>
<stop offset="1" stop-color="#C8ED04"/>
</linearGradient>
</defs>
</svg>
