<svg width="198" height="49" viewBox="0 0 198 49" fill="none" xmlns="http://www.w3.org/2000/svg">
<rect width="198" height="49" rx="10" fill="url(#paint0_linear_2259_2849)"/>
<path d="M161.75 24.8018C161.75 24.3707 161.893 23.9908 162.177 23.6748L162.184 23.667L162.303 23.5557C162.588 23.3129 162.924 23.1876 163.303 23.1875C163.736 23.1875 164.113 23.3513 164.421 23.667L170.422 29.8037V15.3486C170.422 14.9052 170.571 14.5203 170.873 14.2119C171.175 13.9033 171.553 13.7491 171.991 13.75C172.429 13.7511 172.807 13.9059 173.109 14.2129C173.412 14.5205 173.56 14.905 173.559 15.3486H173.56V29.8037L179.594 23.6348C179.902 23.3191 180.277 23.1578 180.704 23.1709C181.126 23.1839 181.494 23.3558 181.799 23.6689L181.806 23.6758L181.619 23.8438L181.806 23.6768C182.086 23.9899 182.236 24.3606 182.249 24.7793C182.263 25.2108 182.108 25.5906 181.798 25.9063L173.093 34.8057C172.939 34.9628 172.766 35.0811 172.572 35.1523C172.388 35.2202 172.192 35.2521 171.988 35.25C171.787 35.2479 171.594 35.2152 171.412 35.1504C171.217 35.0808 171.043 34.9623 170.889 34.8037L162.184 25.9043C161.893 25.6068 161.75 25.2329 161.75 24.8018Z" fill="url(#paint1_linear_2259_2849)" stroke="url(#paint2_linear_2259_2849)" stroke-width="0.5"/>
<path d="M16.5234 33V16.0898H27.7266V19.0078H20.0625V23.0742H27.293V25.8281H20.0625V30.082H27.7266V33H16.5234ZM29.3086 33L33.2695 26.7188L29.332 20.3789H33.1992L35.4609 24.6328H35.5547L37.8047 20.3789H41.5195L37.5703 26.625L41.5078 33H37.7695L35.3789 28.6641H35.2852L32.918 33H29.3086ZM43.0781 37.1367V20.3789H46.5V22.5352H46.6055C46.832 22.0352 47.1289 21.6055 47.4961 21.2461C47.8711 20.8867 48.3047 20.6133 48.7969 20.4258C49.2969 20.2305 49.8477 20.1328 50.4492 20.1328C51.5117 20.1328 52.4258 20.3945 53.1914 20.918C53.9648 21.4336 54.5586 22.1836 54.9727 23.168C55.3867 24.1445 55.5938 25.3164 55.5938 26.6836V26.6953C55.5938 28.0625 55.3867 29.2344 54.9727 30.2109C54.5586 31.1875 53.9688 31.9375 53.2031 32.4609C52.4453 32.9844 51.5391 33.2461 50.4844 33.2461C49.8906 33.2461 49.3398 33.1523 48.832 32.9648C48.3242 32.7695 47.8828 32.4961 47.5078 32.1445C47.1328 31.793 46.8281 31.3711 46.5938 30.8789H46.5V37.1367H43.0781ZM49.3125 30.4102C49.8828 30.4102 50.3789 30.2617 50.8008 29.9648C51.2227 29.6602 51.5469 29.2305 51.7734 28.6758C52 28.1211 52.1133 27.4609 52.1133 26.6953V26.6836C52.1133 25.9102 51.9961 25.2461 51.7617 24.6914C51.5352 24.1367 51.2109 23.7109 50.7891 23.4141C50.375 23.1172 49.8828 22.9688 49.3125 22.9688C48.75 22.9688 48.2539 23.1211 47.8242 23.4258C47.4023 23.7227 47.0703 24.1484 46.8281 24.7031C46.5938 25.2578 46.4766 25.918 46.4766 26.6836V26.6953C46.4766 27.4609 46.5977 28.1211 46.8398 28.6758C47.082 29.2305 47.4141 29.6602 47.8359 29.9648C48.2578 30.2617 48.75 30.4102 49.3125 30.4102ZM57.6562 33V15.9258H61.0781V33H57.6562ZM69.3633 33.2578C68.0898 33.2578 66.9844 32.9961 66.0469 32.4727C65.1094 31.9492 64.3867 31.1992 63.8789 30.2227C63.3711 29.2383 63.1172 28.0625 63.1172 26.6953V26.6719C63.1172 25.3125 63.375 24.1445 63.8906 23.168C64.4062 22.1836 65.1289 21.4297 66.0586 20.9062C66.9961 20.375 68.0977 20.1094 69.3633 20.1094C70.6289 20.1094 71.7266 20.375 72.6562 20.9062C73.5938 21.4297 74.3203 22.1797 74.8359 23.1562C75.3516 24.1328 75.6094 25.3047 75.6094 26.6719V26.6953C75.6094 28.0703 75.3555 29.2461 74.8477 30.2227C74.3398 31.1992 73.6172 31.9492 72.6797 32.4727C71.75 32.9961 70.6445 33.2578 69.3633 33.2578ZM69.375 30.5742C69.9453 30.5742 70.4336 30.4219 70.8398 30.1172C71.2539 29.8125 71.5703 29.3711 71.7891 28.793C72.0156 28.2148 72.1289 27.5156 72.1289 26.6953V26.6719C72.1289 25.8516 72.0156 25.1523 71.7891 24.5742C71.5625 23.9961 71.2422 23.5547 70.8281 23.25C70.4141 22.9453 69.9258 22.793 69.3633 22.793C68.8086 22.793 68.3203 22.9492 67.8984 23.2617C67.4844 23.5664 67.1641 24.0078 66.9375 24.5859C66.7109 25.1562 66.5977 25.8516 66.5977 26.6719V26.6953C66.5977 27.5156 66.7109 28.2148 66.9375 28.793C67.1641 29.3711 67.4844 29.8125 67.8984 30.1172C68.3125 30.4219 68.8047 30.5742 69.375 30.5742ZM77.5547 33V20.3789H80.9766V22.5352H81.0703C81.2578 21.7773 81.6055 21.1875 82.1133 20.7656C82.6211 20.3438 83.25 20.1328 84 20.1328C84.2031 20.1328 84.3945 20.1445 84.5742 20.168C84.7539 20.1914 84.9102 20.2266 85.043 20.2734V23.2734C84.8789 23.2109 84.6836 23.1641 84.457 23.1328C84.2305 23.1016 83.9922 23.0859 83.7422 23.0859C83.1641 23.0859 82.668 23.1953 82.2539 23.4141C81.8398 23.6328 81.5234 23.957 81.3047 24.3867C81.0859 24.8086 80.9766 25.3242 80.9766 25.9336V33H77.5547ZM91.9219 33.2578C90.6328 33.2578 89.5234 32.9961 88.5938 32.4727C87.6719 31.9414 86.9609 31.1836 86.4609 30.1992C85.9609 29.2148 85.7109 28.0508 85.7109 26.707V26.6953C85.7109 25.3594 85.957 24.1992 86.4492 23.2148C86.9492 22.2305 87.6523 21.4688 88.5586 20.9297C89.4727 20.3828 90.5469 20.1094 91.7812 20.1094C93.0078 20.1094 94.0703 20.375 94.9688 20.9062C95.8672 21.4297 96.5586 22.168 97.043 23.1211C97.5352 24.0664 97.7812 25.1758 97.7812 26.4492V27.5039H87.3984V25.3477H96.1523L94.5352 27.3633V26.0391C94.5352 25.2969 94.4219 24.6758 94.1953 24.1758C93.9688 23.6758 93.6523 23.3008 93.2461 23.0508C92.8398 22.8008 92.3711 22.6758 91.8398 22.6758C91.3008 22.6758 90.8242 22.8047 90.4102 23.0625C89.9961 23.3203 89.6719 23.7031 89.4375 24.2109C89.2031 24.7109 89.0859 25.3203 89.0859 26.0391V27.375C89.0859 28.0781 89.2031 28.6797 89.4375 29.1797C89.6719 29.6719 90.0039 30.0508 90.4336 30.3164C90.8711 30.5742 91.3906 30.7031 91.9922 30.7031C92.4609 30.7031 92.8672 30.6328 93.2109 30.4922C93.5625 30.3438 93.8438 30.1602 94.0547 29.9414C94.2734 29.7148 94.4219 29.4883 94.5 29.2617L94.5234 29.1914H97.6758L97.6406 29.3203C97.5469 29.7734 97.3633 30.2305 97.0898 30.6914C96.8242 31.1523 96.457 31.5781 95.9883 31.9688C95.5273 32.3594 94.957 32.6719 94.2773 32.9062C93.6055 33.1406 92.8203 33.2578 91.9219 33.2578ZM105.047 33V16.0898H108.117L117.223 29.1094L114.34 27.0469H115.875V16.0898H119.379V33H116.332L107.215 19.9219L110.086 21.9727H108.551V33H105.047ZM127.887 33.2578C126.613 33.2578 125.508 32.9961 124.57 32.4727C123.633 31.9492 122.91 31.1992 122.402 30.2227C121.895 29.2383 121.641 28.0625 121.641 26.6953V26.6719C121.641 25.3125 121.898 24.1445 122.414 23.168C122.93 22.1836 123.652 21.4297 124.582 20.9062C125.52 20.375 126.621 20.1094 127.887 20.1094C129.152 20.1094 130.25 20.375 131.18 20.9062C132.117 21.4297 132.844 22.1797 133.359 23.1562C133.875 24.1328 134.133 25.3047 134.133 26.6719V26.6953C134.133 28.0703 133.879 29.2461 133.371 30.2227C132.863 31.1992 132.141 31.9492 131.203 32.4727C130.273 32.9961 129.168 33.2578 127.887 33.2578ZM127.898 30.5742C128.469 30.5742 128.957 30.4219 129.363 30.1172C129.777 29.8125 130.094 29.3711 130.312 28.793C130.539 28.2148 130.652 27.5156 130.652 26.6953V26.6719C130.652 25.8516 130.539 25.1523 130.312 24.5742C130.086 23.9961 129.766 23.5547 129.352 23.25C128.938 22.9453 128.449 22.793 127.887 22.793C127.332 22.793 126.844 22.9492 126.422 23.2617C126.008 23.5664 125.688 24.0078 125.461 24.5859C125.234 25.1562 125.121 25.8516 125.121 26.6719V26.6953C125.121 27.5156 125.234 28.2148 125.461 28.793C125.688 29.3711 126.008 29.8125 126.422 30.1172C126.836 30.4219 127.328 30.5742 127.898 30.5742ZM138.34 33L134.977 20.3789H138.422L140.332 29.707H140.426L142.664 20.3789H145.934L148.184 29.707H148.277L150.188 20.3789H153.574L150.223 33H146.578L144.293 24.0938H144.199L141.938 33H138.34Z" fill="url(#paint3_linear_2259_2849)"/>
<defs>
<linearGradient id="paint0_linear_2259_2849" x1="157.41" y1="-2.94" x2="144.45" y2="72.0746" gradientUnits="userSpaceOnUse">
<stop stop-color="#FFFDEE"/>
<stop offset="1" stop-color="#E3EF26"/>
</linearGradient>
<linearGradient id="paint1_linear_2259_2849" x1="173" y1="11.4704" x2="173" y2="37.4704" gradientUnits="userSpaceOnUse">
<stop stop-color="#0C342C"/>
<stop offset="0.545777" stop-color="#009477"/>
<stop offset="1" stop-color="#0C342C"/>
</linearGradient>
<linearGradient id="paint2_linear_2259_2849" x1="173" y1="37.4704" x2="173" y2="11.4704" gradientUnits="userSpaceOnUse">
<stop stop-color="#0C342C"/>
<stop offset="0.545777" stop-color="#009477"/>
<stop offset="1" stop-color="#0C342C"/>
</linearGradient>
<linearGradient id="paint3_linear_2259_2849" x1="84.6958" y1="44.8" x2="84.6958" y2="7.1" gradientUnits="userSpaceOnUse">
<stop stop-color="#0C342C"/>
<stop offset="0.545777" stop-color="#009477"/>
<stop offset="1" stop-color="#0C342C"/>
</linearGradient>
</defs>
</svg>
