<svg width="178" height="147" viewBox="0 0 178 147" fill="none" xmlns="http://www.w3.org/2000/svg">
<circle cx="70.6345" cy="92.0392" r="35.9665" transform="rotate(5.59611 70.6345 92.0392)" fill="url(#paint0_radial_2259_2858)"/>
<path d="M94.7551 20.4714C89.7847 19.0553 84.7034 19.8218 80.5412 22.2057C74.0925 24.655 65.9644 23.6925 59.658 16.7324C59.4698 16.3332 59.2675 15.9408 59.0514 15.5562C56.7708 11.4961 52.9598 8.2918 48.1358 6.88606C38.3604 4.03749 28.1267 9.65277 25.2782 19.4281C22.4297 29.2035 28.045 39.4372 37.8203 42.2858C42.6443 43.6915 47.5801 43.0361 51.6847 40.8367C62.3683 35.8051 72.2637 44.6416 73.3826 46.7722C78.4142 57.4558 66.1748 67.3879 63.4393 68.8244C57.9474 71.7085 53.5895 76.7341 51.7171 83.1599C48.0598 95.7105 55.2693 108.85 67.82 112.507C74.6566 114.499 81.6679 113.267 87.226 109.703C97.7211 104.29 109.3 115.46 110.835 118.142C113.915 123.526 119.095 127.7 125.584 129.34C138.258 132.542 151.129 124.863 154.331 112.188C157.533 99.5139 149.854 86.6435 137.179 83.4414C130.69 81.8019 124.732 83.5933 118.882 86.2898C107.755 90.3674 96.8925 82.3517 94.9804 78.0156C91.8356 69.736 90.3837 61.126 97.3438 54.8196C97.743 54.6314 98.1354 54.4291 98.52 54.213C102.58 51.9324 105.784 48.1215 107.19 43.2975C110.028 33.5579 104.464 23.3633 94.7551 20.4714Z" fill="url(#paint1_linear_2259_2858)"/>
<ellipse cx="130.968" cy="106.351" rx="32.5497" ry="32.9094" transform="rotate(-1.93172 130.968 106.351)" fill="black" fill-opacity="0.01"/>
<defs>
<radialGradient id="paint0_radial_2259_2858" cx="0" cy="0" r="1" gradientUnits="userSpaceOnUse" gradientTransform="translate(70.6345 92.0392) rotate(90) scale(35.9665)">
<stop offset="0.0769231" stop-color="#2E8D6B"/>
<stop offset="1" stop-color="#2E8D6B" stop-opacity="0"/>
</radialGradient>
<linearGradient id="paint1_linear_2259_2858" x1="142.86" y1="112.848" x2="48.1416" y2="20.9907" gradientUnits="userSpaceOnUse">
<stop stop-color="#C8ED04"/>
<stop offset="1" stop-color="#0E8057"/>
</linearGradient>
</defs>
</svg>
