<svg width="280" height="123" viewBox="0 0 280 123" fill="none" xmlns="http://www.w3.org/2000/svg">
<g filter="url(#filter0_d_2259_2892)">
<rect x="3.70386" y="12.6226" width="271.508" height="99.4" rx="49.7" transform="rotate(-0.34245 3.70386 12.6226)" fill="white" fill-opacity="0.1" shape-rendering="crispEdges"/>
<rect x="7.22471" y="16.1016" width="264.508" height="92.4" rx="46.2" transform="rotate(-0.34245 7.22471 16.1016)" stroke="url(#paint0_linear_2259_2892)" stroke-width="7" shape-rendering="crispEdges"/>
</g>
<g filter="url(#filter1_d_2259_2892)">
<path d="M35.4239 87V76.76L58.7039 58.52C62.5439 55.4 64.6239 51.8 64.6239 48.12C64.6239 43.56 61.5839 40.92 56.3839 40.92C50.8639 40.92 47.6639 44.12 47.3439 49.56H35.6639C36.1439 37.56 43.9839 30.04 56.5439 30.04C68.7039 30.04 76.6239 36.92 76.6239 47.48C76.6239 58.76 67.7439 68.12 48.7039 76.68L50.2239 80.2C58.8639 76.76 64.8639 75.88 77.9839 75.96V87H35.4239ZM111.929 88.04C96.8895 88.04 87.6095 76.84 87.6095 59C87.6095 41.16 96.8895 29.96 111.929 29.96C126.969 29.96 136.249 41.16 136.249 59C136.249 76.84 127.049 88.04 111.929 88.04ZM111.929 77.16C119.689 77.16 124.089 70.44 124.089 59C124.089 47.56 119.689 40.84 111.929 40.84C104.169 40.84 99.7695 47.56 99.7695 59C99.7695 70.44 104.169 77.16 111.929 77.16ZM145.58 87V76.76L168.86 58.52C172.7 55.4 174.78 51.8 174.78 48.12C174.78 43.56 171.74 40.92 166.54 40.92C161.02 40.92 157.82 44.12 157.5 49.56H145.82C146.3 37.56 154.14 30.04 166.7 30.04C178.86 30.04 186.78 36.92 186.78 47.48C186.78 58.76 177.9 68.12 158.86 76.68L160.38 80.2C169.02 76.76 175.02 75.88 188.14 75.96V87H145.58ZM220.966 88.04C207.686 88.04 198.646 79.4 198.646 66.52V53.56C198.646 38.44 206.406 30.04 220.406 30.04C232.326 30.04 240.246 35.96 241.766 45.8H230.646C229.366 42.28 225.926 40.2 220.886 40.2C213.766 40.2 210.166 44.28 210.166 52.2V57.56L213.206 58.2C215.366 53.16 220.166 50.2 226.406 50.2C236.246 50.2 243.366 57.64 243.366 68.2C243.366 79.72 234.006 88.04 220.966 88.04ZM221.046 77.88C227.126 77.88 231.366 74.12 231.366 68.6C231.366 63.08 227.126 59.32 221.046 59.32C214.886 59.32 210.726 63.08 210.726 68.6C210.726 74.12 214.886 77.88 221.046 77.88Z" fill="url(#paint1_linear_2259_2892)"/>
</g>
<defs>
<filter id="filter0_d_2259_2892" x="0" y="11.2959" width="279.505" height="108.429" filterUnits="userSpaceOnUse" color-interpolation-filters="sRGB">
<feFlood flood-opacity="0" result="BackgroundImageFix"/>
<feColorMatrix in="SourceAlpha" type="matrix" values="0 0 0 0 0 0 0 0 0 0 0 0 0 0 0 0 0 0 127 0" result="hardAlpha"/>
<feOffset dy="4"/>
<feGaussianBlur stdDeviation="2"/>
<feComposite in2="hardAlpha" operator="out"/>
<feColorMatrix type="matrix" values="0 0 0 0 0 0 0 0 0 0 0 0 0 0 0 0 0 0 0.53 0"/>
<feBlend mode="normal" in2="BackgroundImageFix" result="effect1_dropShadow_2259_2892"/>
<feBlend mode="normal" in="BackgroundImageFix" in2="effect1_dropShadow_2259_2892" result="BackgroundImageFix"/>
<feBlend mode="normal" in="SourceGraphic" in2="BackgroundImageFix" result="shape"/>
</filter>
<filter id="filter1_d_2259_2892" x="31.4238" y="29.96" width="215.942" height="66.0801" filterUnits="userSpaceOnUse" color-interpolation-filters="sRGB">
<feFlood flood-opacity="0" result="BackgroundImageFix"/>
<feColorMatrix in="SourceAlpha" type="matrix" values="0 0 0 0 0 0 0 0 0 0 0 0 0 0 0 0 0 0 127 0" result="hardAlpha"/>
<feOffset dy="4"/>
<feGaussianBlur stdDeviation="2"/>
<feComposite in2="hardAlpha" operator="out"/>
<feColorMatrix type="matrix" values="0 0 0 0 0 0 0 0 0 0 0 0 0 0 0 0 0 0 0.55 0"/>
<feBlend mode="normal" in2="BackgroundImageFix" result="effect1_dropShadow_2259_2892"/>
<feBlend mode="normal" in="SourceGraphic" in2="effect1_dropShadow_2259_2892" result="shape"/>
</filter>
<linearGradient id="paint0_linear_2259_2892" x1="230.413" y1="12.6226" x2="184.094" y2="213.603" gradientUnits="userSpaceOnUse">
<stop stop-color="#E3EF26"/>
<stop offset="0.557692" stop-color="#076653"/>
<stop offset="0.9999" stop-color="#0C342C"/>
</linearGradient>
<linearGradient id="paint1_linear_2259_2892" x1="204.014" y1="-7.38" x2="137.889" y2="160.496" gradientUnits="userSpaceOnUse">
<stop stop-color="#FFFDEE"/>
<stop offset="1" stop-color="#E3EF26"/>
</linearGradient>
</defs>
</svg>
