<svg width="760" height="297" viewBox="0 0 760 297" fill="none" xmlns="http://www.w3.org/2000/svg">
<path d="M634.341 43.6652C626.499 55.8863 630.048 72.1509 642.269 79.9933C648.526 84.0084 655.843 85.0374 662.547 83.4453C672.357 82.6982 681.986 83.8585 686.516 93.2564C686.591 93.7408 686.683 94.2224 686.793 94.7001C687.946 99.7427 690.998 104.354 695.696 107.369C705.215 113.477 717.883 110.712 723.991 101.194C730.099 91.6748 727.334 79.0067 717.816 72.8985C713.118 69.8842 707.654 69.0307 702.589 70.0834C689.626 72.0848 682.926 56.0984 682.256 52.7324C680.91 45.9747 676.926 39.7519 670.669 35.7367C658.448 27.8944 642.183 31.4441 634.341 43.6652Z" fill="url(#paint0_linear_2517_103)"/>
<circle cx="662.812" cy="121.776" r="35.9665" transform="rotate(12.317 662.812 121.776)" fill="url(#paint1_radial_2517_103)"/>
<circle cx="661.613" cy="122.083" r="26" transform="rotate(-19.0611 661.613 122.083)" fill="#C8ED04"/>
<circle cx="656.812" cy="59.0739" r="28.5294" transform="rotate(4.7892 656.812 59.0739)" fill="black" fill-opacity="0.01"/>
<ellipse cx="706.692" cy="90.0421" rx="20.9779" ry="21.4006" transform="rotate(4.7892 706.692 90.0421)" fill="black" fill-opacity="0.01"/>
<path d="M496.676 148.508C490.011 139.371 477.2 137.368 468.063 144.033C463.385 147.446 460.577 152.47 459.845 157.786C457.624 165.12 451.264 171.616 440.864 172.441C440.385 172.336 439.903 172.248 439.418 172.177C434.299 171.428 428.73 172.727 424.221 176.017C419.543 179.429 416.735 184.453 416.003 189.769C413.783 197.103 407.422 203.599 397.022 204.424C396.543 204.319 396.061 204.231 395.576 204.16C390.458 203.412 385.054 204.59 380.545 207.879C371.408 214.545 369.404 227.355 376.07 236.492C382.735 245.629 395.546 247.633 404.683 240.967C409.192 237.678 411.964 232.892 412.814 227.79C415.636 214.979 430.121 212.27 432.754 212.732C441.329 214.234 447.329 221.429 448.154 231.829C448.049 232.308 447.961 232.791 447.89 233.275C447.141 238.394 448.319 243.797 451.609 248.306C458.274 257.443 471.085 259.447 480.222 252.781C489.359 246.116 491.363 233.305 484.697 224.168C481.408 219.659 476.622 216.887 471.519 216.037C458.709 213.215 456.195 198.44 456.656 195.807C459.478 182.996 473.963 180.287 476.596 180.749C481.882 181.675 487.523 180.534 492.201 177.122C501.339 170.456 503.342 157.646 496.676 148.508Z" fill="url(#paint2_linear_2517_103)"/>
<ellipse cx="467.693" cy="235.829" rx="21.218" ry="21.4524" transform="rotate(-13.6881 467.693 235.829)" fill="black" fill-opacity="0.01"/>
<circle cx="70.6344" cy="215.003" r="35.9665" transform="rotate(5.59611 70.6344 215.003)" fill="url(#paint3_radial_2517_103)"/>
<path d="M94.755 143.435C89.7847 142.019 84.7034 142.786 80.5412 145.17C74.0924 147.619 65.9644 146.656 59.658 139.696C59.4698 139.297 59.2675 138.905 59.0514 138.52C56.7708 134.46 52.9598 131.256 48.1358 129.85C38.3604 127.001 28.1267 132.617 25.2782 142.392C22.4296 152.167 28.045 162.401 37.8203 165.25C42.6443 166.655 47.5801 166 51.6847 163.801C62.3683 158.769 72.2637 167.605 73.3826 169.736C78.4141 180.42 66.1748 190.352 63.4393 191.788C57.9474 194.672 53.5895 199.698 51.717 206.124C48.0598 218.674 55.2693 231.814 67.8199 235.471C74.6566 237.463 81.6679 236.231 87.226 232.667C97.7211 227.253 109.3 238.424 110.835 241.106C113.915 246.49 119.095 250.664 125.584 252.303C138.258 255.505 151.129 247.827 154.331 235.152C157.533 222.478 149.854 209.607 137.179 206.405C130.69 204.766 124.732 206.557 118.882 209.254C107.755 213.331 96.8925 205.316 94.9804 200.979C91.8356 192.7 90.3837 184.09 97.3438 177.783C97.743 177.595 98.1353 177.393 98.52 177.177C102.58 174.896 105.784 171.085 107.19 166.261C110.028 156.522 104.464 146.327 94.755 143.435Z" fill="url(#paint4_linear_2517_103)"/>
<ellipse cx="130.968" cy="229.315" rx="32.5497" ry="32.9094" transform="rotate(-1.93172 130.968 229.315)" fill="black" fill-opacity="0.01"/>
<path d="M662.401 129.464C662.401 173.591 626.645 209.365 582.537 209.365C559.841 209.365 541.961 196.947 525.233 185.083C520.157 181.483 506.491 174.82 489.119 172.608C471.789 170.401 450.869 172.635 431.129 186.666L431.12 186.672L430.317 185.525C431.081 186.617 431.118 186.67 431.119 186.672L431.118 186.673C431.117 186.674 431.114 186.676 431.112 186.677C431.108 186.68 431.102 186.684 431.094 186.69C431.077 186.702 431.052 186.719 431.02 186.741C430.956 186.785 430.862 186.85 430.739 186.934C430.493 187.102 430.13 187.348 429.661 187.66C428.723 188.283 427.359 189.171 425.651 190.236C422.236 192.364 417.437 195.201 411.895 198.036C400.874 203.673 386.688 209.426 374.601 209.365C362.246 209.302 347.861 203.144 336.709 197.14C331.101 194.121 326.251 191.108 322.804 188.849C321.079 187.72 319.704 186.778 318.758 186.117C318.285 185.786 317.918 185.526 317.67 185.347C317.546 185.258 317.45 185.19 317.386 185.143C317.353 185.12 317.329 185.102 317.312 185.089C317.304 185.083 317.297 185.078 317.293 185.075C317.291 185.073 317.289 185.072 317.288 185.071L317.286 185.07L317.189 184.999L317.106 184.913C315.525 183.272 311.215 180.457 304.891 177.676C298.624 174.92 290.528 172.266 281.495 170.865C263.436 168.064 241.754 170.283 223.33 186.562C208.929 200.666 189.211 209.365 167.465 209.365C123.357 209.365 87.6005 173.591 87.6005 129.464C87.6005 85.3374 123.357 49.564 167.465 49.564C189.193 49.564 206.203 55.5691 223.369 72.4048C224.734 73.7431 226.051 75.1302 227.317 76.563C237.055 87.5816 253.997 92.6486 271.427 92.0415C288.841 91.4349 306.356 85.1717 317.106 74.0161C331.633 58.9407 352.431 49.564 374.608 49.564C396.764 49.564 416.886 58.27 431.298 72.4048C432.642 73.7231 433.94 75.0886 435.188 76.4985C448.731 88.8808 465.394 92.6002 481.625 91.0337C497.899 89.4628 513.668 82.5774 525.2 73.8696C542.678 60.6721 559.852 49.564 582.537 49.564C626.645 49.564 662.401 85.3374 662.401 129.464Z" fill="url(#paint5_linear_2517_103)" stroke="url(#paint6_linear_2517_103)" stroke-width="2.8"/>
<path d="M472.206 132.39H481.546V140.964H472.206V132.39ZM472.206 113.438H481.546V122.013H472.206V113.438Z" fill="url(#paint7_linear_2517_103)"/>
<path d="M265.206 140.964V132.39H274.546V140.964H265.206ZM265.206 122.013V113.438H274.546V122.013H265.206Z" fill="url(#paint8_linear_2517_103)"/>
<ellipse cx="392.307" cy="224.44" rx="20.8997" ry="21.1307" transform="rotate(-13.6881 392.307 224.44)" fill="black" fill-opacity="0.01"/>
<defs>
<linearGradient id="paint0_linear_2517_103" x1="648.904" y1="35.2425" x2="682.913" y2="115.861" gradientUnits="userSpaceOnUse">
<stop stop-color="#C8ED04"/>
<stop offset="1" stop-color="#0E8057"/>
</linearGradient>
<radialGradient id="paint1_radial_2517_103" cx="0" cy="0" r="1" gradientUnits="userSpaceOnUse" gradientTransform="translate(662.812 121.776) rotate(90) scale(35.9665)">
<stop offset="0.0769231" stop-color="#2E8D6B"/>
<stop offset="1" stop-color="#2E8D6B" stop-opacity="0"/>
</radialGradient>
<linearGradient id="paint2_linear_2517_103" x1="436.501" y1="140.464" x2="502.085" y2="239.421" gradientUnits="userSpaceOnUse">
<stop offset="0.0994877" stop-color="#0E8057"/>
<stop offset="1" stop-color="#C8ED04"/>
</linearGradient>
<radialGradient id="paint3_radial_2517_103" cx="0" cy="0" r="1" gradientUnits="userSpaceOnUse" gradientTransform="translate(70.6344 215.003) rotate(90) scale(35.9665)">
<stop offset="0.0769231" stop-color="#2E8D6B"/>
<stop offset="1" stop-color="#2E8D6B" stop-opacity="0"/>
</radialGradient>
<linearGradient id="paint4_linear_2517_103" x1="142.86" y1="235.812" x2="48.1416" y2="143.955" gradientUnits="userSpaceOnUse">
<stop stop-color="#C8ED04"/>
<stop offset="1" stop-color="#0E8057"/>
</linearGradient>
<linearGradient id="paint5_linear_2517_103" x1="129.858" y1="197.931" x2="207.081" y2="-60.9554" gradientUnits="userSpaceOnUse">
<stop stop-color="#0E8057"/>
<stop offset="1" stop-color="#C8ED04"/>
</linearGradient>
<linearGradient id="paint6_linear_2517_103" x1="695.321" y1="175.78" x2="574.581" y2="-131.315" gradientUnits="userSpaceOnUse">
<stop stop-color="#FFFDEE"/>
<stop offset="1" stop-color="#E3EF26"/>
</linearGradient>
<linearGradient id="paint7_linear_2517_103" x1="482.311" y1="76.9244" x2="445.16" y2="88.3277" gradientUnits="userSpaceOnUse">
<stop stop-color="#FFFDEE"/>
<stop offset="1" stop-color="#E3EF26"/>
</linearGradient>
<linearGradient id="paint8_linear_2517_103" x1="275.311" y1="76.9244" x2="238.16" y2="88.3277" gradientUnits="userSpaceOnUse">
<stop stop-color="#FFFDEE"/>
<stop offset="1" stop-color="#E3EF26"/>
</linearGradient>
</defs>
</svg>
