<svg width="760" height="297" viewBox="0 0 760 297" fill="none" xmlns="http://www.w3.org/2000/svg">
<path d="M634.341 43.6652C626.499 55.8863 630.048 72.1509 642.269 79.9933C648.526 84.0084 655.843 85.0374 662.547 83.4453C672.357 82.6982 681.986 83.8585 686.516 93.2564C686.591 93.7408 686.684 94.2224 686.793 94.7001C687.946 99.7427 690.998 104.354 695.696 107.369C705.215 113.477 717.883 110.712 723.991 101.194C730.099 91.6748 727.334 79.0067 717.816 72.8985C713.118 69.8842 707.654 69.0307 702.589 70.0834C689.626 72.0848 682.926 56.0984 682.256 52.7324C680.91 45.9747 676.926 39.7519 670.669 35.7367C658.448 27.8944 642.183 31.4441 634.341 43.6652Z" fill="url(#paint0_linear_2517_102)"/>
<circle cx="662.812" cy="121.776" r="35.9665" transform="rotate(12.317 662.812 121.776)" fill="url(#paint1_radial_2517_102)"/>
<circle cx="661.613" cy="122.083" r="26" transform="rotate(-19.0611 661.613 122.083)" fill="#C8ED04"/>
<circle cx="656.812" cy="59.0739" r="28.5294" transform="rotate(4.7892 656.812 59.0739)" fill="black" fill-opacity="0.01"/>
<ellipse cx="706.692" cy="90.0421" rx="20.9779" ry="21.4006" transform="rotate(4.7892 706.692 90.0421)" fill="black" fill-opacity="0.01"/>
<path d="M496.676 148.508C490.011 139.371 477.2 137.368 468.063 144.033C463.385 147.446 460.577 152.47 459.845 157.786C457.624 165.12 451.264 171.616 440.864 172.441C440.385 172.336 439.903 172.248 439.418 172.177C434.299 171.428 428.73 172.727 424.221 176.017C419.543 179.429 416.735 184.453 416.003 189.769C413.783 197.103 407.422 203.599 397.022 204.424C396.543 204.319 396.061 204.231 395.576 204.16C390.457 203.412 385.054 204.59 380.545 207.879C371.408 214.545 369.404 227.355 376.07 236.492C382.735 245.629 395.546 247.633 404.683 240.967C409.192 237.678 411.964 232.892 412.814 227.79C415.636 214.979 430.121 212.27 432.754 212.732C441.329 214.234 447.329 221.429 448.154 231.829C448.049 232.308 447.961 232.791 447.89 233.275C447.141 238.394 448.319 243.797 451.609 248.306C458.274 257.443 471.085 259.447 480.222 252.781C489.359 246.116 491.363 233.305 484.697 224.168C481.408 219.659 476.622 216.887 471.519 216.037C458.709 213.215 456.195 198.44 456.656 195.807C459.478 182.996 473.963 180.287 476.596 180.749C481.882 181.675 487.523 180.534 492.201 177.122C501.338 170.456 503.342 157.646 496.676 148.508Z" fill="url(#paint2_linear_2517_102)"/>
<ellipse cx="467.693" cy="235.829" rx="21.218" ry="21.4524" transform="rotate(-13.6881 467.693 235.829)" fill="black" fill-opacity="0.01"/>
<circle cx="70.6344" cy="215.003" r="35.9665" transform="rotate(5.59611 70.6344 215.003)" fill="url(#paint3_radial_2517_102)"/>
<path d="M94.755 143.435C89.7847 142.019 84.7034 142.786 80.5412 145.17C74.0924 147.619 65.9644 146.656 59.658 139.696C59.4698 139.297 59.2675 138.905 59.0514 138.52C56.7708 134.46 52.9598 131.256 48.1358 129.85C38.3604 127.001 28.1267 132.617 25.2782 142.392C22.4296 152.167 28.045 162.401 37.8203 165.25C42.6443 166.655 47.5801 166 51.6847 163.801C62.3683 158.769 72.2637 167.605 73.3826 169.736C78.4141 180.42 66.1748 190.352 63.4393 191.788C57.9474 194.672 53.5895 199.698 51.717 206.124C48.0598 218.674 55.2693 231.814 67.8199 235.471C74.6566 237.463 81.6679 236.231 87.226 232.667C97.7211 227.253 109.3 238.424 110.835 241.106C113.915 246.49 119.095 250.664 125.584 252.303C138.258 255.505 151.129 247.827 154.331 235.152C157.533 222.478 149.854 209.607 137.179 206.405C130.69 204.766 124.732 206.557 118.882 209.254C107.755 213.331 96.8925 205.316 94.9804 200.979C91.8356 192.7 90.3837 184.09 97.3438 177.783C97.743 177.595 98.1353 177.393 98.52 177.177C102.58 174.896 105.784 171.085 107.19 166.261C110.028 156.522 104.464 146.327 94.755 143.435Z" fill="url(#paint4_linear_2517_102)"/>
<ellipse cx="130.968" cy="229.315" rx="32.5497" ry="32.9094" transform="rotate(-1.93172 130.968 229.315)" fill="black" fill-opacity="0.01"/>
<path d="M662.401 129.464C662.401 173.591 626.645 209.365 582.537 209.365C559.841 209.365 541.961 196.947 525.233 185.083C520.157 181.483 506.491 174.82 489.119 172.608C471.789 170.401 450.869 172.635 431.129 186.666L431.12 186.672L430.317 185.525C431.081 186.617 431.118 186.67 431.119 186.672L431.118 186.673C431.117 186.674 431.114 186.676 431.112 186.677C431.108 186.68 431.102 186.684 431.094 186.69C431.077 186.702 431.052 186.719 431.02 186.741C430.956 186.785 430.862 186.85 430.739 186.934C430.493 187.102 430.13 187.348 429.661 187.66C428.723 188.283 427.359 189.171 425.651 190.236C422.236 192.364 417.437 195.201 411.895 198.036C400.874 203.673 386.688 209.426 374.601 209.365C362.246 209.302 347.861 203.144 336.709 197.14C331.101 194.121 326.251 191.108 322.804 188.849C321.079 187.72 319.704 186.778 318.758 186.117C318.285 185.786 317.918 185.526 317.67 185.347C317.546 185.258 317.45 185.19 317.386 185.143C317.353 185.12 317.329 185.102 317.312 185.089C317.304 185.083 317.297 185.078 317.293 185.075C317.291 185.073 317.289 185.072 317.288 185.071L317.286 185.07L317.189 184.999L317.106 184.913C315.525 183.272 311.215 180.457 304.891 177.676C298.624 174.92 290.528 172.266 281.495 170.865C263.436 168.064 241.754 170.283 223.33 186.562C208.929 200.666 189.211 209.365 167.465 209.365C123.357 209.365 87.6005 173.591 87.6005 129.464C87.6005 85.3374 123.357 49.564 167.465 49.564C189.193 49.564 206.203 55.5691 223.369 72.4048C224.734 73.7431 226.051 75.1302 227.317 76.563C237.055 87.5816 253.997 92.6486 271.427 92.0415C288.841 91.4349 306.356 85.1717 317.106 74.0161C331.633 58.9407 352.431 49.564 374.608 49.564C396.764 49.564 416.886 58.27 431.298 72.4048C432.642 73.7231 433.94 75.0886 435.188 76.4985C448.731 88.8808 465.394 92.6002 481.625 91.0337C497.899 89.4628 513.668 82.5774 525.2 73.8696C542.678 60.6721 559.852 49.564 582.537 49.564C626.645 49.564 662.401 85.3374 662.401 129.464Z" fill="url(#paint5_linear_2517_102)" stroke="url(#paint6_linear_2517_102)" stroke-width="2.8"/>
<path d="M472.206 140.964V132.39H481.546V140.964H472.206ZM472.206 122.013V113.438H481.546V122.013H472.206Z" fill="url(#paint7_linear_2517_102)"/>
<path d="M265.206 140.964V132.39H274.546V140.964H265.206ZM265.206 122.013V113.438H274.546V122.013H265.206Z" fill="url(#paint8_linear_2517_102)"/>
<path d="M146.772 128.674C136.504 128.674 130.169 121.028 130.169 108.849C130.169 96.6696 136.504 89.0234 146.772 89.0234C157.039 89.0234 163.375 96.6696 163.375 108.849C163.375 121.028 157.094 128.674 146.772 128.674ZM146.772 121.247C152.069 121.247 155.073 116.659 155.073 108.849C155.073 101.039 152.069 96.4511 146.772 96.4511C141.474 96.4511 138.47 101.039 138.47 108.849C138.47 116.659 141.474 121.247 146.772 121.247ZM186.88 128.674C176.612 128.674 170.277 121.028 170.277 108.849C170.277 96.6696 176.612 89.0234 186.88 89.0234C197.148 89.0234 203.483 96.6696 203.483 108.849C203.483 121.028 197.203 128.674 186.88 128.674ZM186.88 121.247C192.178 121.247 195.182 116.659 195.182 108.849C195.182 101.039 192.178 96.4511 186.88 96.4511C181.582 96.4511 178.579 101.039 178.579 108.849C178.579 116.659 181.582 121.247 186.88 121.247Z" fill="url(#paint9_linear_2517_102)"/>
<path d="M144.765 145.82C151.121 145.82 154.761 147.472 154.761 154.136C154.761 160.66 151.345 163.964 145.689 163.964H137.009V163.208C138.941 162.956 138.941 162.956 138.941 160.968V148.816C138.941 146.828 138.941 146.828 137.009 146.576V145.82H144.765ZM145.773 163.04C148.321 163.04 150.449 160.464 150.449 155.284C150.449 149.32 148.713 146.744 144.737 146.744H142.973V160.884C142.973 162.872 143.057 163.04 144.849 163.04H145.773ZM169.218 162.312L169.442 162.704C168.686 163.6 167.678 164.328 166.362 164.328C164.906 164.328 163.898 163.656 163.702 162.172C162.778 163.46 161.602 164.328 159.838 164.328C157.822 164.328 156.45 162.984 156.45 161.22C156.45 158.42 159.25 157.776 162.162 156.74L163.674 156.208V155.088C163.674 152.764 163.198 152.064 161.994 152.064C161.098 152.064 160.538 152.456 160.734 155.452C159.306 155.676 157.29 155.76 157.29 154.024C157.29 152.484 159.25 151.112 162.47 151.112C165.942 151.112 167.454 151.896 167.454 155.368V160.632C167.454 162.284 167.818 162.564 168.406 162.564C168.742 162.564 169.078 162.368 169.218 162.312ZM161.798 162.2C162.582 162.2 163.17 161.948 163.674 161.36V157.244L162.862 157.552C161.406 158.084 160.398 158.644 160.342 160.296C160.314 161.444 161.014 162.2 161.798 162.2ZM178.201 151.504H182.317V152.204C181.505 152.456 181.365 152.652 180.665 154.444L176.549 164.972C175.233 168.388 174.169 170.404 173.441 170.404C172.377 170.404 170.697 168.388 170.613 167.408L170.865 167.128C174.281 167.38 174.477 167.464 175.317 165.392L170.753 154.444C169.997 152.624 169.885 152.456 169.017 152.204V151.504H175.569V152.204C174.253 152.4 174.253 152.68 175.149 154.892L177.361 160.464L179.237 154.892C179.825 153.156 179.825 152.512 178.201 152.204V151.504ZM182.84 155.34C182.728 152.652 184.8 151.112 188.104 151.112C189.868 151.112 191.072 151.476 191.604 151.7C191.716 152.092 191.716 154.332 191.604 155.088H191.016C190.568 154.192 189.896 152.064 187.796 152.064C186.9 152.064 186.144 152.512 186.144 153.52C186.144 156.46 192.584 155.844 192.584 159.932C192.584 162.76 190.512 164.328 187.516 164.328C185.22 164.328 183.82 163.936 183.12 163.656C183.008 162.816 182.952 161.472 183.036 160.436H183.652C184.576 161.892 185.612 163.404 187.46 163.404C188.552 163.404 189.28 162.788 189.28 161.668C189.28 158.672 182.98 159.652 182.84 155.34Z" fill="url(#paint10_linear_2517_102)"/>
<line x1="127.001" y1="137.964" x2="207.001" y2="137.964" stroke="url(#paint11_linear_2517_102)" stroke-width="2"/>
<path d="M355.772 129.674C345.504 129.674 339.169 122.028 339.169 109.849C339.169 97.6696 345.504 90.0234 355.772 90.0234C366.039 90.0234 372.375 97.6696 372.375 109.849C372.375 122.028 366.094 129.674 355.772 129.674ZM355.772 122.247C361.069 122.247 364.073 117.659 364.073 109.849C364.073 102.039 361.069 97.4511 355.772 97.4511C350.474 97.4511 347.47 102.039 347.47 109.849C347.47 117.659 350.474 122.247 355.772 122.247ZM395.88 129.674C385.612 129.674 379.277 122.028 379.277 109.849C379.277 97.6696 385.612 90.0234 395.88 90.0234C406.148 90.0234 412.483 97.6696 412.483 109.849C412.483 122.028 406.203 129.674 395.88 129.674ZM395.88 122.247C401.178 122.247 404.182 117.659 404.182 109.849C404.182 102.039 401.178 97.4511 395.88 97.4511C390.582 97.4511 387.579 102.039 387.579 109.849C387.579 117.659 390.582 122.247 395.88 122.247Z" fill="url(#paint12_linear_2517_102)"/>
<path d="M359.385 147.576C357.453 147.828 357.453 147.828 357.453 149.816V161.968C357.453 163.956 357.453 163.956 359.385 164.208V164.964H351.489V164.208C353.421 163.956 353.421 163.956 353.421 161.968V156.564H345.973V161.968C345.973 163.956 345.973 163.956 347.905 164.208V164.964H340.009V164.208C341.941 163.956 341.941 163.956 341.941 161.968V149.816C341.941 147.828 341.941 147.828 340.009 147.576V146.82H347.905V147.576C345.973 147.828 345.973 147.828 345.973 149.816V155.64L353.421 155.612V149.816C353.421 147.828 353.421 147.828 351.489 147.576V146.82H359.385V147.576ZM367.524 165.328C363.688 165.328 361.168 163.76 361.168 158.972C361.168 154.1 363.996 152.084 367.748 152.084C371.36 152.084 373.936 153.484 373.936 158.356C373.936 163.2 371.164 165.328 367.524 165.328ZM367.748 164.404C369.232 164.404 369.904 163.032 369.904 158.72C369.904 154.716 368.98 153.036 367.44 153.036C365.872 153.036 365.2 154.492 365.2 158.664C365.2 162.78 366.18 164.404 367.748 164.404ZM387.928 161.324C387.928 163.48 387.928 163.48 389.328 164.264V164.684C388.6 164.852 385.352 165.188 384.148 165.188L384.428 162.864L384.26 162.78C383.42 163.928 381.88 165.328 379.836 165.328C377.904 165.328 376.532 164.124 376.532 161.464V156.508C376.532 154.352 376.532 154.352 375.132 153.568V153.148C376.672 152.728 378.744 152.28 380.48 152.14C380.368 153.288 380.312 154.24 380.312 155.5V159.868C380.312 161.968 380.844 163.06 382.132 163.06C382.804 163.06 383.448 162.752 384.148 162.192V156.508C384.148 154.352 384.148 154.352 382.776 153.568V153.148C384.316 152.728 386.416 152.28 388.096 152.14C387.984 153.288 387.928 154.24 387.928 155.5V161.324ZM399.014 152.112C400.05 152.112 400.47 152.672 400.47 153.82C400.47 154.744 400.078 155.276 399.77 155.556C399.518 155.416 398.958 155.304 398.23 155.304C397.586 155.304 396.578 155.528 395.878 156.284V162.024C395.878 164.012 395.878 164.012 397.67 164.264V164.964H390.81V164.264C392.098 164.012 392.098 164.012 392.098 162.024V156.508C392.098 154.352 392.098 154.352 390.698 153.568V153.148C392.21 152.728 394.31 152.28 395.878 152.14L395.542 155.528L395.738 155.64C396.634 153.792 397.502 152.112 399.014 152.112ZM401.644 156.34C401.532 153.652 403.604 152.112 406.908 152.112C408.672 152.112 409.876 152.476 410.408 152.7C410.52 153.092 410.52 155.332 410.408 156.088H409.82C409.372 155.192 408.7 153.064 406.6 153.064C405.704 153.064 404.948 153.512 404.948 154.52C404.948 157.46 411.388 156.844 411.388 160.932C411.388 163.76 409.316 165.328 406.32 165.328C404.024 165.328 402.624 164.936 401.924 164.656C401.812 163.816 401.756 162.472 401.84 161.436H402.456C403.38 162.892 404.416 164.404 406.264 164.404C407.356 164.404 408.084 163.788 408.084 162.668C408.084 159.672 401.784 160.652 401.644 156.34Z" fill="url(#paint13_linear_2517_102)"/>
<line x1="336.001" y1="138.964" x2="416.001" y2="138.964" stroke="url(#paint14_linear_2517_102)" stroke-width="2"/>
<path d="M564.772 129.674C554.504 129.674 548.169 122.028 548.169 109.849C548.169 97.6696 554.504 90.0234 564.772 90.0234C575.039 90.0234 581.375 97.6696 581.375 109.849C581.375 122.028 575.094 129.674 564.772 129.674ZM564.772 122.247C570.069 122.247 573.073 117.659 573.073 109.849C573.073 102.039 570.069 97.4511 564.772 97.4511C559.474 97.4511 556.47 102.039 556.47 109.849C556.47 117.659 559.474 122.247 564.772 122.247ZM604.88 129.674C594.612 129.674 588.277 122.028 588.277 109.849C588.277 97.6696 594.612 90.0234 604.88 90.0234C615.148 90.0234 621.483 97.6696 621.483 109.849C621.483 122.028 615.203 129.674 604.88 129.674ZM604.88 122.247C610.178 122.247 613.182 117.659 613.182 109.849C613.182 102.039 610.178 97.4511 604.88 97.4511C599.582 97.4511 596.579 102.039 596.579 109.849C596.579 117.659 599.582 122.247 604.88 122.247Z" fill="url(#paint15_linear_2517_102)"/>
<path d="M557.637 161.968C557.805 163.816 557.889 163.956 559.513 164.208V164.964H552.065V164.208C553.801 163.956 553.857 163.956 553.661 161.968L552.625 151.16L547.053 165.076H546.633L541.761 151.524L541.537 154.156C541.341 156.368 541.173 158.916 541.033 161.492C540.921 163.76 541.201 163.956 543.105 164.208V164.964H537.393V164.208C539.185 163.956 539.297 163.788 539.549 161.968C539.885 159.028 540.193 156.676 540.473 153.96L540.809 150.656C541.033 148.64 540.529 148.192 538.989 147.576V146.82H544.309L548.481 159.112L552.905 146.82H558.253V147.576C556.405 147.828 556.321 147.828 556.517 149.844L557.637 161.968ZM564.221 150.404C563.045 150.404 562.177 149.48 562.177 148.444C562.177 147.268 563.045 146.4 564.221 146.4C565.313 146.4 566.153 147.268 566.153 148.444C566.153 149.48 565.313 150.404 564.221 150.404ZM561.029 164.964V164.264C562.317 164.012 562.317 164.012 562.317 162.024V156.508C562.317 154.352 562.317 154.352 560.917 153.568V153.148C562.429 152.728 564.529 152.28 566.237 152.14C566.125 153.288 566.097 154.24 566.097 155.5V162.024C566.097 164.012 566.097 164.012 567.357 164.264V164.964H561.029ZM581.619 162.024C581.619 164.012 581.619 164.012 582.879 164.264V164.964H576.551V164.264C577.839 164.04 577.839 164.04 577.839 162.052V157.572C577.839 155.472 577.307 154.38 575.879 154.38C575.235 154.38 574.563 154.66 573.863 155.22V162.024C573.863 164.012 573.863 164.012 575.123 164.264V164.964H568.795V164.264C570.055 164.012 570.083 164.012 570.083 162.024V156.508C570.083 154.352 570.083 154.352 568.683 153.568V153.148C570.195 152.728 572.295 152.28 573.863 152.14L573.583 154.576L573.751 154.688C574.591 153.512 576.131 152.112 578.175 152.112C580.247 152.112 581.619 153.344 581.619 155.976V162.024ZM596.647 161.324C596.647 163.48 596.647 163.48 598.047 164.264V164.684C597.319 164.852 594.071 165.188 592.867 165.188L593.147 162.864L592.979 162.78C592.139 163.928 590.599 165.328 588.555 165.328C586.623 165.328 585.251 164.124 585.251 161.464V156.508C585.251 154.352 585.251 154.352 583.851 153.568V153.148C585.391 152.728 587.463 152.28 589.199 152.14C589.087 153.288 589.031 154.24 589.031 155.5V159.868C589.031 161.968 589.563 163.06 590.851 163.06C591.523 163.06 592.167 162.752 592.867 162.192V156.508C592.867 154.352 592.867 154.352 591.495 153.568V153.148C593.035 152.728 595.135 152.28 596.815 152.14C596.703 153.288 596.647 154.24 596.647 155.5V161.324ZM607.425 163.004L607.621 163.396C606.865 164.432 605.493 165.328 603.785 165.328C601.461 165.328 600.593 164.096 600.621 161.324L600.649 153.428H599.165V152.812C601.293 152.196 602.889 151.132 604.037 149.06H604.513C604.485 149.956 604.457 150.936 604.429 152.532H607.397V153.428H604.429C604.401 154.38 604.401 155.528 604.401 156.928V160.54C604.401 162.696 604.933 163.256 605.941 163.256C606.753 163.256 607.145 163.116 607.425 163.004ZM618.912 160.932L619.304 161.296C619.136 161.856 618.24 165.328 614.236 165.328C610.932 165.328 608.468 163.2 608.468 158.972C608.468 154.156 611.352 152.112 614.264 152.112C617.764 152.112 619.192 154.016 619.192 157.18L618.828 157.516H611.968V157.628C611.968 160.568 613.172 162.5 615.748 162.5C617.624 162.5 618.52 161.24 618.912 160.932ZM614.096 153.064C612.836 153.064 612.136 154.156 611.996 156.676H615.832C615.832 154.408 615.44 153.064 614.096 153.064ZM620.918 156.34C620.806 153.652 622.878 152.112 626.182 152.112C627.946 152.112 629.15 152.476 629.682 152.7C629.794 153.092 629.794 155.332 629.682 156.088H629.094C628.646 155.192 627.974 153.064 625.874 153.064C624.978 153.064 624.222 153.512 624.222 154.52C624.222 157.46 630.662 156.844 630.662 160.932C630.662 163.76 628.59 165.328 625.594 165.328C623.298 165.328 621.898 164.936 621.198 164.656C621.086 163.816 621.03 162.472 621.114 161.436H621.73C622.654 162.892 623.69 164.404 625.538 164.404C626.63 164.404 627.358 163.788 627.358 162.668C627.358 159.672 621.058 160.652 620.918 156.34Z" fill="url(#paint16_linear_2517_102)"/>
<line x1="545.001" y1="138.964" x2="625.001" y2="138.964" stroke="url(#paint17_linear_2517_102)" stroke-width="2"/>
<ellipse cx="392.307" cy="224.44" rx="20.8997" ry="21.1307" transform="rotate(-13.6881 392.307 224.44)" fill="black" fill-opacity="0.01"/>
<defs>
<linearGradient id="paint0_linear_2517_102" x1="648.904" y1="35.2425" x2="682.913" y2="115.861" gradientUnits="userSpaceOnUse">
<stop stop-color="#C8ED04"/>
<stop offset="1" stop-color="#0E8057"/>
</linearGradient>
<radialGradient id="paint1_radial_2517_102" cx="0" cy="0" r="1" gradientUnits="userSpaceOnUse" gradientTransform="translate(662.812 121.776) rotate(90) scale(35.9665)">
<stop offset="0.0769231" stop-color="#2E8D6B"/>
<stop offset="1" stop-color="#2E8D6B" stop-opacity="0"/>
</radialGradient>
<linearGradient id="paint2_linear_2517_102" x1="436.501" y1="140.464" x2="502.085" y2="239.421" gradientUnits="userSpaceOnUse">
<stop offset="0.0994877" stop-color="#0E8057"/>
<stop offset="1" stop-color="#C8ED04"/>
</linearGradient>
<radialGradient id="paint3_radial_2517_102" cx="0" cy="0" r="1" gradientUnits="userSpaceOnUse" gradientTransform="translate(70.6344 215.003) rotate(90) scale(35.9665)">
<stop offset="0.0769231" stop-color="#2E8D6B"/>
<stop offset="1" stop-color="#2E8D6B" stop-opacity="0"/>
</radialGradient>
<linearGradient id="paint4_linear_2517_102" x1="142.86" y1="235.812" x2="48.1416" y2="143.955" gradientUnits="userSpaceOnUse">
<stop stop-color="#C8ED04"/>
<stop offset="1" stop-color="#0E8057"/>
</linearGradient>
<linearGradient id="paint5_linear_2517_102" x1="129.858" y1="197.931" x2="207.081" y2="-60.9554" gradientUnits="userSpaceOnUse">
<stop stop-color="#0E8057"/>
<stop offset="1" stop-color="#C8ED04"/>
</linearGradient>
<linearGradient id="paint6_linear_2517_102" x1="695.321" y1="175.78" x2="574.581" y2="-131.315" gradientUnits="userSpaceOnUse">
<stop stop-color="#FFFDEE"/>
<stop offset="1" stop-color="#E3EF26"/>
</linearGradient>
<linearGradient id="paint7_linear_2517_102" x1="482.311" y1="76.9244" x2="445.16" y2="88.3277" gradientUnits="userSpaceOnUse">
<stop stop-color="#FFFDEE"/>
<stop offset="1" stop-color="#E3EF26"/>
</linearGradient>
<linearGradient id="paint8_linear_2517_102" x1="275.311" y1="76.9244" x2="238.16" y2="88.3277" gradientUnits="userSpaceOnUse">
<stop stop-color="#FFFDEE"/>
<stop offset="1" stop-color="#E3EF26"/>
</linearGradient>
<linearGradient id="paint9_linear_2517_102" x1="190.601" y1="63.9244" x2="127.454" y2="150.071" gradientUnits="userSpaceOnUse">
<stop stop-color="#FFFDEE"/>
<stop offset="1" stop-color="#E3EF26"/>
</linearGradient>
<linearGradient id="paint10_linear_2517_102" x1="182.111" y1="134.924" x2="163.321" y2="180.839" gradientUnits="userSpaceOnUse">
<stop stop-color="#FFFDEE"/>
<stop offset="1" stop-color="#E3EF26"/>
</linearGradient>
<linearGradient id="paint11_linear_2517_102" x1="190.601" y1="138.904" x2="190.587" y2="140.481" gradientUnits="userSpaceOnUse">
<stop stop-color="#FFFDEE"/>
<stop offset="1" stop-color="#E3EF26"/>
</linearGradient>
<linearGradient id="paint12_linear_2517_102" x1="399.601" y1="64.9244" x2="336.454" y2="151.071" gradientUnits="userSpaceOnUse">
<stop stop-color="#FFFDEE"/>
<stop offset="1" stop-color="#E3EF26"/>
</linearGradient>
<linearGradient id="paint13_linear_2517_102" x1="397.831" y1="135.924" x2="382.241" y2="184.528" gradientUnits="userSpaceOnUse">
<stop stop-color="#FFFDEE"/>
<stop offset="1" stop-color="#E3EF26"/>
</linearGradient>
<linearGradient id="paint14_linear_2517_102" x1="399.601" y1="139.904" x2="399.587" y2="141.481" gradientUnits="userSpaceOnUse">
<stop stop-color="#FFFDEE"/>
<stop offset="1" stop-color="#E3EF26"/>
</linearGradient>
<linearGradient id="paint15_linear_2517_102" x1="608.601" y1="64.9244" x2="545.454" y2="151.071" gradientUnits="userSpaceOnUse">
<stop stop-color="#FFFDEE"/>
<stop offset="1" stop-color="#E3EF26"/>
</linearGradient>
<linearGradient id="paint16_linear_2517_102" x1="612.526" y1="135.924" x2="599.92" y2="186.379" gradientUnits="userSpaceOnUse">
<stop stop-color="#FFFDEE"/>
<stop offset="1" stop-color="#E3EF26"/>
</linearGradient>
<linearGradient id="paint17_linear_2517_102" x1="608.601" y1="139.904" x2="608.587" y2="141.481" gradientUnits="userSpaceOnUse">
<stop stop-color="#FFFDEE"/>
<stop offset="1" stop-color="#E3EF26"/>
</linearGradient>
</defs>
</svg>
