<svg width="190" height="218" viewBox="0 0 190 218" fill="none" xmlns="http://www.w3.org/2000/svg">
<g filter="url(#filter0_f_2731_956)">
<path d="M64.3743 14.177C56.9705 11.5991 49.2085 12.3168 42.6973 15.5641C32.7176 18.7113 20.4922 16.545 11.5485 5.45451C11.2983 4.83353 11.0261 4.22174 10.7325 3.62039C7.63268 -2.72717 2.14053 -7.91207 -5.04251 -10.4615C-19.5982 -15.6277 -35.5859 -8.0161 -40.7521 6.53957C-45.9183 21.0952 -38.3067 37.083 -23.751 42.2492C-16.568 44.7987 -9.036 44.2364 -2.62809 41.2634C13.99 34.575 28.2054 48.8198 29.7141 52.1441C36.4025 68.7622 17.001 82.7365 12.7329 84.6735C4.16447 88.5623 -2.87343 95.7934 -6.26939 105.361C-12.9023 124.049 -3.1297 144.576 15.5584 151.209C25.7383 154.822 36.4637 153.567 45.1918 148.655C61.5578 141.372 78.1199 159.298 80.2097 163.493C84.4051 171.916 91.8853 178.688 101.57 181.737C120.485 187.691 140.646 177.184 146.6 158.269C152.554 139.354 142.048 119.193 123.132 113.239C113.448 110.19 104.268 112.384 95.1736 115.957C77.9668 121.162 62.2158 108.076 59.6981 101.343C55.6575 88.5297 54.2095 75.364 65.2999 66.4202C65.9209 66.1701 66.5326 65.8979 67.134 65.6042C73.4816 62.5044 78.6664 57.0125 81.2158 49.8294C86.3632 35.3271 78.826 19.4031 64.3743 14.177Z" fill="url(#paint0_linear_2731_956)"/>
<ellipse cx="111.727" cy="147.392" rx="49.3756" ry="49.9212" transform="rotate(1.36333 111.727 147.392)" fill="#C8ED04" fill-opacity="0.2"/>
</g>
<defs>
<filter id="filter0_f_2731_956" x="-62.3701" y="-32.0801" width="243.473" height="249.393" filterUnits="userSpaceOnUse" color-interpolation-filters="sRGB">
<feFlood flood-opacity="0" result="BackgroundImageFix"/>
<feBlend mode="normal" in="SourceGraphic" in2="BackgroundImageFix" result="shape"/>
<feGaussianBlur stdDeviation="0" result="effect1_foregroundBlur_2731_956"/>
</filter>
<linearGradient id="paint0_linear_2731_956" x1="129.171" y1="158.269" x2="-6.26326" y2="10.8991" gradientUnits="userSpaceOnUse">
<stop stop-color="#C8ED04"/>
<stop offset="1" stop-color="#0E8057"/>
</linearGradient>
</defs>
</svg>
