<svg width="1440" height="1371" viewBox="0 0 1440 1371" fill="none" xmlns="http://www.w3.org/2000/svg">
<g clip-path="url(#clip0_3095_662)">
<rect width="1440" height="1371" fill="white"/>
<rect width="1440" height="1819" fill="url(#paint0_linear_3095_662)"/>
<path d="M895.117 1176.69C928.332 1209.34 981.731 1208.89 1014.39 1175.67L1127.43 1060.7C1160.09 1027.48 1159.63 974.082 1126.42 941.426L1011.44 828.385C978.229 795.729 924.83 796.182 892.173 829.398C859.517 862.613 859.969 916.012 893.184 948.668L948.018 1002.58L894.106 1057.41C861.45 1090.63 861.902 1144.03 895.117 1176.69Z" fill="url(#paint1_linear_3095_662)"/>
<path d="M1357.42 706.17C1390.63 738.826 1391.08 792.225 1358.43 825.44L1245.39 940.417C1212.73 973.632 1159.33 974.086 1126.12 941.43L1011.14 828.389C977.926 795.733 977.473 742.334 1010.13 709.119C1042.79 675.903 1096.19 675.45 1129.4 708.106L1184.23 762.018L1238.15 707.183C1270.8 673.967 1324.2 673.514 1357.42 706.17Z" fill="url(#paint2_linear_3095_662)"/>
<path d="M1015.4 1294.94C982.184 1262.29 981.731 1208.89 1014.39 1175.67L1127.43 1060.7C1160.09 1027.48 1213.49 1027.03 1246.7 1059.68L1361.68 1172.72C1394.89 1205.38 1395.34 1258.78 1362.69 1291.99C1330.03 1325.21 1276.63 1325.66 1243.42 1293.01L1188.58 1239.1L1134.67 1293.93C1102.01 1327.15 1048.61 1327.6 1015.4 1294.94Z" fill="url(#paint3_linear_3095_662)"/>
<path d="M1478 824.429C1444.78 791.773 1391.38 792.226 1358.73 825.441L1245.68 940.418C1213.03 973.633 1213.48 1027.03 1246.69 1059.69L1361.67 1172.73C1394.88 1205.39 1448.28 1204.93 1480.94 1171.72C1513.6 1138.5 1513.14 1085.1 1479.93 1052.45L1425.09 998.534L1479.01 943.699C1511.66 910.484 1511.21 857.085 1478 824.429Z" fill="url(#paint4_linear_3095_662)"/>
<g filter="url(#filter0_nf_3095_662)">
<path d="M214.5 575L-259.488 668L-411 686.467L-259.488 1050L200.584 1142.26L329 924.5L214.5 575Z" fill="#E3EF26"/>
<path d="M214.5 575L-259.488 668L-411 686.467L-259.488 1050L200.584 1142.26L329 924.5L214.5 575Z" stroke="black"/>
</g>
<circle cx="114.146" cy="960.146" r="108.146" stroke="url(#paint5_linear_3095_662)" stroke-opacity="0.33" stroke-width="2"/>
<circle cx="432.854" cy="960.146" r="108.146" stroke="url(#paint6_linear_3095_662)" stroke-opacity="0.33" stroke-width="2"/>
<circle cx="273.5" cy="960.146" r="108.146" stroke="url(#paint7_linear_3095_662)" stroke-opacity="0.33" stroke-width="2"/>
<circle cx="114.146" cy="1106.4" r="108.146" stroke="url(#paint8_linear_3095_662)" stroke-opacity="0.33" stroke-width="2"/>
<circle cx="432.854" cy="1106.4" r="108.146" stroke="url(#paint9_linear_3095_662)" stroke-opacity="0.33" stroke-width="2"/>
<circle cx="273.5" cy="1106.4" r="108.146" stroke="url(#paint10_linear_3095_662)" stroke-opacity="0.33" stroke-width="2"/>
<circle cx="94.1463" cy="149.146" r="108.146" stroke="url(#paint11_linear_3095_662)" stroke-opacity="0.33" stroke-width="2"/>
<circle cx="412.854" cy="149.146" r="108.146" stroke="url(#paint12_linear_3095_662)" stroke-opacity="0.33" stroke-width="2"/>
<circle cx="253.5" cy="149.146" r="108.146" stroke="url(#paint13_linear_3095_662)" stroke-opacity="0.33" stroke-width="2"/>
<circle cx="94.1463" cy="295.402" r="108.146" stroke="url(#paint14_linear_3095_662)" stroke-opacity="0.33" stroke-width="2"/>
<circle cx="412.854" cy="295.402" r="108.146" stroke="url(#paint15_linear_3095_662)" stroke-opacity="0.33" stroke-width="2"/>
<circle cx="253.5" cy="295.402" r="108.146" stroke="url(#paint16_linear_3095_662)" stroke-opacity="0.33" stroke-width="2"/>
</g>
<defs>
<filter id="filter0_nf_3095_662" x="-811.715" y="174.424" width="1541.26" height="1368.4" filterUnits="userSpaceOnUse" color-interpolation-filters="sRGB">
<feFlood flood-opacity="0" result="BackgroundImageFix"/>
<feBlend mode="normal" in="SourceGraphic" in2="BackgroundImageFix" result="shape"/>
<feTurbulence type="fractalNoise" baseFrequency="2 2" stitchTiles="stitch" numOctaves="3" result="noise" seed="9811" />
<feColorMatrix in="noise" type="luminanceToAlpha" result="alphaNoise" />
<feComponentTransfer in="alphaNoise" result="coloredNoise1">
<feFuncA type="discrete" tableValues="1 1 1 1 1 1 1 1 1 1 1 1 1 1 1 1 1 1 1 1 1 1 1 1 1 1 1 1 1 1 1 1 1 1 1 1 1 1 1 1 1 1 1 1 1 1 1 1 1 1 1 0 0 0 0 0 0 0 0 0 0 0 0 0 0 0 0 0 0 0 0 0 0 0 0 0 0 0 0 0 0 0 0 0 0 0 0 0 0 0 0 0 0 0 0 0 0 0 0 0 "/>
</feComponentTransfer>
<feComposite operator="in" in2="shape" in="coloredNoise1" result="noise1Clipped" />
<feFlood flood-color="rgba(74, 72, 72, 0.25)" result="color1Flood" />
<feComposite operator="in" in2="noise1Clipped" in="color1Flood" result="color1" />
<feMerge result="effect1_noise_3095_662">
<feMergeNode in="shape" />
<feMergeNode in="color1" />
</feMerge>
<feGaussianBlur stdDeviation="200" result="effect2_foregroundBlur_3095_662"/>
</filter>
<linearGradient id="paint0_linear_3095_662" x1="1202.4" y1="5.59208e-05" x2="-684.458" y2="2372.83" gradientUnits="userSpaceOnUse">
<stop stop-color="#E3EF26"/>
<stop offset="0.557692" stop-color="#076653"/>
<stop offset="0.9999" stop-color="#0C342C"/>
</linearGradient>
<linearGradient id="paint1_linear_3095_662" x1="936.551" y1="1201.77" x2="949.811" y2="800.842" gradientUnits="userSpaceOnUse">
<stop stop-color="#0E8057"/>
<stop offset="1" stop-color="#C8ED04"/>
</linearGradient>
<linearGradient id="paint2_linear_3095_662" x1="1383.2" y1="747.172" x2="982.556" y2="767.233" gradientUnits="userSpaceOnUse">
<stop stop-color="#C8ED04"/>
<stop offset="1" stop-color="#0E8057"/>
</linearGradient>
<linearGradient id="paint3_linear_3095_662" x1="989.617" y1="1253.94" x2="1390.26" y2="1233.88" gradientUnits="userSpaceOnUse">
<stop stop-color="#C8ED04"/>
<stop offset="1" stop-color="#0E8057"/>
</linearGradient>
<linearGradient id="paint4_linear_3095_662" x1="1436.56" y1="799.346" x2="1423.3" y2="1200.27" gradientUnits="userSpaceOnUse">
<stop stop-color="#0E8057"/>
<stop offset="1" stop-color="#C8ED04"/>
</linearGradient>
<linearGradient id="paint5_linear_3095_662" x1="114.146" y1="851" x2="114.146" y2="1069.29" gradientUnits="userSpaceOnUse">
<stop offset="0.0817308" stop-color="white"/>
<stop offset="0.697115" stop-color="#999999"/>
</linearGradient>
<linearGradient id="paint6_linear_3095_662" x1="432.854" y1="851" x2="432.854" y2="1069.29" gradientUnits="userSpaceOnUse">
<stop offset="0.0817308" stop-color="white"/>
<stop offset="0.697115" stop-color="#999999"/>
</linearGradient>
<linearGradient id="paint7_linear_3095_662" x1="273.5" y1="851" x2="273.5" y2="1069.29" gradientUnits="userSpaceOnUse">
<stop offset="0.0817308" stop-color="white"/>
<stop offset="0.697115" stop-color="#999999"/>
</linearGradient>
<linearGradient id="paint8_linear_3095_662" x1="114.146" y1="997.256" x2="114.146" y2="1215.55" gradientUnits="userSpaceOnUse">
<stop offset="0.0817308" stop-color="white"/>
<stop offset="0.697115" stop-color="#999999"/>
</linearGradient>
<linearGradient id="paint9_linear_3095_662" x1="432.854" y1="997.256" x2="432.854" y2="1215.55" gradientUnits="userSpaceOnUse">
<stop offset="0.0817308" stop-color="white"/>
<stop offset="0.697115" stop-color="#999999"/>
</linearGradient>
<linearGradient id="paint10_linear_3095_662" x1="273.5" y1="997.256" x2="273.5" y2="1215.55" gradientUnits="userSpaceOnUse">
<stop offset="0.0817308" stop-color="white"/>
<stop offset="0.697115" stop-color="#999999"/>
</linearGradient>
<linearGradient id="paint11_linear_3095_662" x1="94.1463" y1="40" x2="94.1463" y2="258.293" gradientUnits="userSpaceOnUse">
<stop offset="0.0817308" stop-color="white"/>
<stop offset="0.697115" stop-color="#999999"/>
</linearGradient>
<linearGradient id="paint12_linear_3095_662" x1="412.854" y1="40" x2="412.854" y2="258.293" gradientUnits="userSpaceOnUse">
<stop offset="0.0817308" stop-color="white"/>
<stop offset="0.697115" stop-color="#999999"/>
</linearGradient>
<linearGradient id="paint13_linear_3095_662" x1="253.5" y1="40" x2="253.5" y2="258.293" gradientUnits="userSpaceOnUse">
<stop offset="0.0817308" stop-color="white"/>
<stop offset="0.697115" stop-color="#999999"/>
</linearGradient>
<linearGradient id="paint14_linear_3095_662" x1="94.1463" y1="186.256" x2="94.1463" y2="404.549" gradientUnits="userSpaceOnUse">
<stop offset="0.0817308" stop-color="white"/>
<stop offset="0.697115" stop-color="#999999"/>
</linearGradient>
<linearGradient id="paint15_linear_3095_662" x1="412.854" y1="186.256" x2="412.854" y2="404.549" gradientUnits="userSpaceOnUse">
<stop offset="0.0817308" stop-color="white"/>
<stop offset="0.697115" stop-color="#999999"/>
</linearGradient>
<linearGradient id="paint16_linear_3095_662" x1="253.5" y1="186.256" x2="253.5" y2="404.549" gradientUnits="userSpaceOnUse">
<stop offset="0.0817308" stop-color="white"/>
<stop offset="0.697115" stop-color="#999999"/>
</linearGradient>
<clipPath id="clip0_3095_662">
<rect width="1440" height="1371" fill="white"/>
</clipPath>
</defs>
</svg>
