<svg width="1440" height="4149" viewBox="0 0 1440 4149" fill="none" xmlns="http://www.w3.org/2000/svg">
<g clip-path="url(#clip0_2316_91)">
<rect width="1440" height="4149" fill="white"/>
<rect x="-3" width="1443" height="4247" fill="url(#paint0_linear_2316_91)"/>
<g filter="url(#filter0_fn_2316_91)">
<path d="M1330.94 751.8L-288.658 788.81L-547.923 1059.83C-547.923 1059.83 807.457 912.624 885.006 930.487L1844.89 1389.6L1615.01 989.24L1330.94 751.8Z" fill="url(#paint1_linear_2316_91)" fill-opacity="0.44"/>
</g>
<g opacity="0.73" filter="url(#filter1_fn_2316_91)">
<ellipse cx="594.5" cy="570" rx="1450.5" ry="598" fill="url(#paint2_linear_2316_91)"/>
</g>
<g filter="url(#filter2_nf_2316_91)">
<path d="M589.5 436.5H993.5L1262.5 478.5L1374.5 361L1279 187L753 251.5L454.5 195L252 361L589.5 436.5Z" fill="#C2D84F"/>
</g>
<g filter="url(#filter3_fn_2316_91)">
<path d="M636.12 122.159L388.531 292.844C574.85 380.625 764.554 385.111 810.748 364.3C879.797 333.192 1272.08 397.753 1300.15 460.88L1361.84 328.979L1385.75 204.741L1082.8 224.157L636.12 122.159Z" fill="url(#paint3_linear_2316_91)"/>
</g>
<g opacity="0.5" filter="url(#filter4_nf_2316_91)">
<path d="M385 252L465 779L25.5 908.5L-189 817.5L-148 77.5L-8 -61L489 88L385 252Z" fill="#2E8D6B"/>
</g>
<g opacity="0.3">
<line y1="-0.5" x2="1455.6" y2="-0.5" transform="matrix(0.898703 0.438557 -0.663933 0.747792 431.102 -261.811)" stroke="#186757" stroke-opacity="0.22"/>
<line y1="-0.5" x2="1455.6" y2="-0.5" transform="matrix(0.898703 0.438557 -0.663933 0.747792 502.857 -319.1)" stroke="#186757" stroke-opacity="0.22"/>
<line y1="-0.5" x2="1455.6" y2="-0.5" transform="matrix(0.898703 0.438557 -0.663933 0.747792 569.092 -390.711)" stroke="#186757" stroke-opacity="0.22"/>
<line y1="-0.5" x2="1455.6" y2="-0.5" transform="matrix(0.898703 0.438557 -0.663933 0.747792 640.848 -448)" stroke="#186757" stroke-opacity="0.22"/>
<line y1="-0.5" x2="1455.6" y2="-0.5" transform="matrix(0.898703 0.438557 -0.663933 0.747792 141.321 -6.05615)" stroke="#186757" stroke-opacity="0.22"/>
<line y1="-0.5" x2="1455.6" y2="-0.5" transform="matrix(0.898703 0.438557 -0.663933 0.747792 213.076 -63.3452)" stroke="#186757" stroke-opacity="0.22"/>
<line y1="-0.5" x2="1455.6" y2="-0.5" transform="matrix(0.898703 0.438557 -0.663933 0.747792 279.312 -134.957)" stroke="#186757" stroke-opacity="0.22"/>
<line y1="-0.5" x2="1455.6" y2="-0.5" transform="matrix(0.898703 0.438557 -0.663933 0.747792 351.067 -192.246)" stroke="#186757" stroke-opacity="0.22"/>
<line y1="-0.5" x2="1455.6" y2="-0.5" transform="matrix(0.898703 0.438557 -0.663933 0.747792 -151.219 257.882)" stroke="#186757" stroke-opacity="0.22"/>
<line y1="-0.5" x2="1455.6" y2="-0.5" transform="matrix(0.898703 0.438557 -0.663933 0.747792 -79.4642 200.593)" stroke="#186757" stroke-opacity="0.22"/>
<line y1="-0.5" x2="1455.6" y2="-0.5" transform="matrix(0.898703 0.438557 -0.663933 0.747792 -13.2286 128.982)" stroke="#186757" stroke-opacity="0.22"/>
<line y1="-0.5" x2="1455.6" y2="-0.5" transform="matrix(0.898703 0.438557 -0.663933 0.747792 58.5265 71.6934)" stroke="#186757" stroke-opacity="0.22"/>
<line y1="-0.5" x2="1455.6" y2="-0.5" transform="matrix(0.898703 0.438557 -0.663933 0.747792 -441 513.637)" stroke="#186757" stroke-opacity="0.22"/>
<line y1="-0.5" x2="1455.6" y2="-0.5" transform="matrix(0.898703 0.438557 -0.663933 0.747792 -369.245 456.348)" stroke="#186757" stroke-opacity="0.22"/>
<line y1="-0.5" x2="1455.6" y2="-0.5" transform="matrix(0.898703 0.438557 -0.663933 0.747792 -303.009 384.736)" stroke="#186757" stroke-opacity="0.22"/>
<line y1="-0.5" x2="1455.6" y2="-0.5" transform="matrix(0.898703 0.438557 -0.663933 0.747792 -231.254 327.447)" stroke="#186757" stroke-opacity="0.22"/>
<line y1="-0.5" x2="1455.6" y2="-0.5" transform="matrix(-0.898703 0.438557 0.663933 0.747792 1076.9 -261.811)" stroke="#186757" stroke-opacity="0.22"/>
<line y1="-0.5" x2="1455.6" y2="-0.5" transform="matrix(-0.898703 0.438557 0.663933 0.747792 1005.14 -319.1)" stroke="#186757" stroke-opacity="0.22"/>
<line y1="-0.5" x2="1455.6" y2="-0.5" transform="matrix(-0.898703 0.438557 0.663933 0.747792 938.908 -390.711)" stroke="#186757" stroke-opacity="0.22"/>
<line y1="-0.5" x2="1455.6" y2="-0.5" transform="matrix(-0.898703 0.438557 0.663933 0.747792 867.152 -448)" stroke="#186757" stroke-opacity="0.22"/>
<line y1="-0.5" x2="1455.6" y2="-0.5" transform="matrix(-0.898703 0.438557 0.663933 0.747792 1366.68 -6.05615)" stroke="#186757" stroke-opacity="0.22"/>
<line y1="-0.5" x2="1455.6" y2="-0.5" transform="matrix(-0.898703 0.438557 0.663933 0.747792 1294.92 -63.3452)" stroke="#186757" stroke-opacity="0.22"/>
<line y1="-0.5" x2="1455.6" y2="-0.5" transform="matrix(-0.898703 0.438557 0.663933 0.747792 1228.69 -134.957)" stroke="#186757" stroke-opacity="0.22"/>
<line y1="-0.5" x2="1455.6" y2="-0.5" transform="matrix(-0.898703 0.438557 0.663933 0.747792 1156.93 -192.246)" stroke="#186757" stroke-opacity="0.22"/>
<line y1="-0.5" x2="1455.6" y2="-0.5" transform="matrix(-0.898703 0.438557 0.663933 0.747792 1659.22 257.882)" stroke="#186757" stroke-opacity="0.22"/>
<line y1="-0.5" x2="1455.6" y2="-0.5" transform="matrix(-0.898703 0.438557 0.663933 0.747792 1587.46 200.593)" stroke="#186757" stroke-opacity="0.22"/>
<line y1="-0.5" x2="1455.6" y2="-0.5" transform="matrix(-0.898703 0.438557 0.663933 0.747792 1521.23 128.982)" stroke="#186757" stroke-opacity="0.22"/>
<line y1="-0.5" x2="1455.6" y2="-0.5" transform="matrix(-0.898703 0.438557 0.663933 0.747792 1449.47 71.6934)" stroke="#186757" stroke-opacity="0.22"/>
<line y1="-0.5" x2="1455.6" y2="-0.5" transform="matrix(-0.898703 0.438557 0.663933 0.747792 1949 513.637)" stroke="#186757" stroke-opacity="0.22"/>
<line y1="-0.5" x2="1455.6" y2="-0.5" transform="matrix(-0.898703 0.438557 0.663933 0.747792 1877.25 456.348)" stroke="#186757" stroke-opacity="0.22"/>
<line y1="-0.5" x2="1455.6" y2="-0.5" transform="matrix(-0.898703 0.438557 0.663933 0.747792 1811.01 384.736)" stroke="#186757" stroke-opacity="0.22"/>
<line y1="-0.5" x2="1455.6" y2="-0.5" transform="matrix(-0.898703 0.438557 0.663933 0.747792 1739.25 327.447)" stroke="#186757" stroke-opacity="0.22"/>
</g>
<circle cx="-12.8537" cy="855.146" r="108.146" stroke="url(#paint4_linear_2316_91)" stroke-opacity="0.33" stroke-width="2"/>
<circle cx="305.854" cy="855.146" r="108.146" stroke="url(#paint5_linear_2316_91)" stroke-opacity="0.33" stroke-width="2"/>
<circle cx="146.5" cy="855.146" r="108.146" stroke="url(#paint6_linear_2316_91)" stroke-opacity="0.33" stroke-width="2"/>
<circle cx="-12.8537" cy="1001.4" r="108.146" stroke="url(#paint7_linear_2316_91)" stroke-opacity="0.33" stroke-width="2"/>
<circle cx="305.854" cy="1001.4" r="108.146" stroke="url(#paint8_linear_2316_91)" stroke-opacity="0.33" stroke-width="2"/>
<circle cx="146.5" cy="1001.4" r="108.146" stroke="url(#paint9_linear_2316_91)" stroke-opacity="0.33" stroke-width="2"/>
<g filter="url(#filter5_fn_2316_91)">
<path d="M1144 18L1333 245.5L1611.5 201L1664 -98L1144 -295V18Z" fill="#2E8D6B"/>
<path d="M1144 18L1333 245.5L1611.5 201L1664 -98L1144 -295V18Z" stroke="black"/>
</g>
<g filter="url(#filter6_fn_2316_91)">
<path d="M1328.31 1108.68L-64.4673 1108.68C134.187 1489.49 843.255 1238.06 946.217 1261.78C1100.12 1297.23 1468.93 2035.64 1435.89 2175.86L1574.77 1372.27L1328.31 1108.68Z" fill="#0E8057"/>
</g>
<g opacity="0.8" filter="url(#filter7_fn_2316_91)">
<path d="M1336.52 426.699L-36.4746 426.699C159.358 802.103 877.001 589.619 978.5 613L1382.5 748.5L1770.62 965.416L1576.46 627.254L1336.52 426.699Z" fill="#2E8D6B"/>
</g>
<g filter="url(#filter8_d_2316_91)">
<path d="M538.694 2522.07C563.767 2503.78 569.264 2468.63 550.972 2443.55C541.607 2430.72 527.822 2423.01 513.233 2421C493.108 2414.91 475.282 2397.46 473.017 2368.92C473.306 2367.6 473.548 2366.28 473.742 2364.95C475.796 2350.9 472.231 2335.62 463.205 2323.25C453.84 2310.41 440.054 2302.71 425.465 2300.7C405.34 2294.61 387.514 2277.15 385.249 2248.61C385.538 2247.3 385.78 2245.97 385.975 2244.64C388.028 2230.6 384.795 2215.77 375.768 2203.4C357.476 2178.33 322.323 2172.83 297.25 2191.12C272.177 2209.41 266.68 2244.57 284.971 2269.64C293.998 2282.01 307.131 2289.62 321.133 2291.95C356.286 2299.69 363.72 2339.44 362.455 2346.67C358.333 2370.2 338.588 2386.66 310.049 2388.93C308.735 2388.64 307.412 2388.4 306.081 2388.2C292.036 2386.15 277.208 2389.38 264.835 2398.41C239.762 2416.7 234.265 2451.85 252.557 2476.93C270.848 2502 306.002 2507.5 331.075 2489.2C343.448 2480.18 351.054 2467.04 353.386 2453.04C361.13 2417.89 401.675 2410.99 408.901 2412.25C444.053 2420 451.488 2459.75 450.222 2466.97C447.681 2481.48 450.811 2496.96 460.176 2509.79C478.467 2534.87 513.621 2540.36 538.694 2522.07Z" fill="url(#paint10_linear_2316_91)"/>
</g>
<g filter="url(#filter9_d_2316_91)">
<path d="M1160.22 3318.22C1149.61 3347.38 1164.64 3379.63 1193.81 3390.24C1208.74 3395.68 1224.48 3394.39 1237.71 3387.92C1257.81 3381.76 1282.34 3386.31 1300.14 3408.74C1300.63 3409.99 1301.16 3411.22 1301.75 3412.43C1307.87 3425.24 1319.35 3435.94 1333.74 3441.18C1348.68 3446.61 1364.42 3445.32 1377.65 3438.85C1397.75 3432.69 1422.28 3437.24 1440.07 3459.67C1440.56 3460.92 1441.1 3462.15 1441.68 3463.37C1447.81 3476.17 1458.76 3486.68 1473.15 3491.92C1502.32 3502.53 1534.56 3487.49 1545.18 3458.33C1555.79 3429.17 1540.76 3396.92 1511.59 3386.3C1497.2 3381.06 1482.06 3382.07 1469.13 3387.94C1435.63 3401.12 1407.3 3372.26 1404.32 3365.56C1394.62 3343.73 1401.83 3319.05 1424.26 3301.26C1425.52 3300.77 1426.75 3300.23 1427.96 3299.65C1440.77 3293.52 1451.27 3282.57 1456.51 3268.18C1467.13 3239.02 1452.09 3206.77 1422.92 3196.15C1393.76 3185.54 1361.51 3200.58 1350.9 3229.74C1345.66 3244.13 1346.67 3259.27 1352.54 3272.2C1365.71 3305.7 1335.9 3334.03 1329.2 3337.01C1295.7 3350.18 1267.36 3321.33 1264.39 3314.63C1258.41 3301.17 1247.18 3290.06 1232.25 3284.63C1203.08 3274.01 1170.83 3289.05 1160.22 3318.22Z" fill="url(#paint11_linear_2316_91)"/>
</g>
<path d="M-75.6322 1733.05C-54.6989 1753.63 -21.0448 1753.34 -0.463742 1732.41L70.7789 1659.95C91.36 1639.01 91.0745 1605.36 70.1413 1584.78L-2.32042 1513.54C-23.2537 1492.96 -56.9077 1493.24 -77.4888 1514.17C-98.0699 1535.11 -97.7845 1568.76 -76.8512 1589.34L-42.2925 1623.32L-76.2698 1657.88C-96.8509 1678.81 -96.5654 1712.47 -75.6322 1733.05Z" fill="url(#paint12_linear_2316_91)"/>
<path d="M215.914 1436.51C236.847 1457.09 237.132 1490.75 216.551 1511.68L145.309 1584.14C124.728 1605.08 91.0736 1605.36 70.1403 1584.78L-2.32135 1513.54C-23.2546 1492.96 -23.5401 1459.3 -2.959 1438.37C17.6221 1417.44 51.2761 1417.15 72.2094 1437.73L106.768 1471.71L140.745 1437.15C161.326 1416.22 194.98 1415.93 215.914 1436.51Z" fill="url(#paint13_linear_2316_91)"/>
<path d="M0.173907 1807.58C-20.7594 1787 -21.0448 1753.34 -0.463742 1732.41L70.7789 1659.95C91.36 1639.01 125.014 1638.73 145.947 1659.31L218.409 1730.55C239.342 1751.13 239.628 1784.79 219.047 1805.72C198.466 1826.65 164.812 1826.94 143.878 1806.36L109.32 1772.38L75.3423 1806.94C54.7612 1827.87 21.1072 1828.16 0.173907 1807.58Z" fill="url(#paint14_linear_2316_91)"/>
<path d="M291.72 1511.04C270.787 1490.46 237.132 1490.75 216.551 1511.68L145.309 1584.14C124.728 1605.08 125.013 1638.73 145.946 1659.31L218.408 1730.55C239.341 1751.13 272.995 1750.85 293.576 1729.92C314.158 1708.98 313.872 1675.33 292.939 1654.75L258.38 1620.77L292.357 1586.21C312.939 1565.28 312.653 1531.62 291.72 1511.04Z" fill="url(#paint15_linear_2316_91)"/>
<g filter="url(#filter10_fn_2316_91)">
<path d="M32.3691 2465.14L-179.617 2773.36C0.705888 2872.87 136.542 2812.77 183.973 2794.96C254.87 2768.33 597.976 2965.64 621.942 3030.43L464.433 2672.5L32.3691 2465.14Z" fill="url(#paint16_linear_2316_91)"/>
</g>
<g filter="url(#filter11_f_2316_91)">
<path d="M1062.43 1990.61L1473.93 1889.21C1194.79 1802.27 646.565 1702.01 585.693 1740.31C494.703 1797.56 -149.756 1789.47 -201.569 1706.21L230.634 1990.61L1062.43 1990.61Z" fill="url(#paint17_linear_2316_91)" fill-opacity="0.34"/>
</g>
<g filter="url(#filter12_d_2316_91)">
<path d="M1171.29 1811.36C1177.25 1826.16 1194.1 1833.31 1208.93 1827.33C1216.52 1824.27 1222.11 1818.37 1224.95 1811.35C1230.54 1802.08 1241.5 1795.38 1256.04 1797.83C1256.65 1798.14 1257.28 1798.42 1257.92 1798.69C1264.68 1801.47 1272.75 1801.61 1280.07 1798.67C1287.66 1795.61 1293.25 1789.7 1296.1 1782.68C1301.68 1773.41 1312.65 1766.71 1327.18 1769.16C1327.8 1769.47 1328.43 1769.76 1329.07 1770.02C1335.82 1772.81 1343.63 1773.06 1350.94 1770.11C1365.77 1764.13 1372.96 1747.3 1367 1732.5C1361.04 1717.71 1344.18 1710.56 1329.36 1716.53C1322.04 1719.48 1316.58 1725.08 1313.65 1731.76C1305.34 1748.32 1284.56 1747.04 1281.12 1745.5C1269.89 1740.5 1264.17 1728.59 1266.65 1714.07C1266.96 1713.46 1267.24 1712.83 1267.51 1712.19C1270.31 1705.44 1270.57 1697.65 1267.63 1690.34C1261.67 1675.55 1244.82 1668.4 1229.99 1674.38C1215.16 1680.35 1207.97 1697.19 1213.94 1711.98C1216.88 1719.28 1222.47 1724.72 1229.17 1727.64C1245.73 1735.91 1244.05 1756.99 1242.51 1760.43C1234.2 1776.98 1213.42 1775.7 1209.97 1774.17C1203.05 1771.08 1194.93 1770.7 1187.34 1773.76C1172.51 1779.73 1165.33 1796.57 1171.29 1811.36Z" fill="url(#paint18_linear_2316_91)"/>
</g>
<g filter="url(#filter13_df_2316_91)">
<path d="M1184.39 2460.06C1213.11 2470.93 1245.19 2456.46 1256.06 2427.75L1293.68 2328.35C1304.54 2299.63 1290.07 2267.54 1261.36 2256.68L1161.96 2219.06C1133.24 2208.19 1101.16 2222.66 1090.29 2251.38C1079.42 2280.09 1093.89 2312.18 1122.61 2323.05L1170.01 2340.99L1152.07 2388.39C1141.21 2417.11 1155.68 2449.2 1184.39 2460.06Z" fill="url(#paint19_linear_2316_91)"/>
<path d="M1338.32 2053.29C1367.04 2064.16 1381.51 2096.24 1370.64 2124.96L1333.03 2224.36C1322.16 2253.07 1290.07 2267.54 1261.36 2256.68L1161.96 2219.06C1133.24 2208.2 1118.77 2176.11 1129.64 2147.39C1140.51 2118.68 1172.6 2104.21 1201.31 2115.07L1248.72 2133.01L1266.66 2085.61C1277.52 2056.89 1309.61 2042.42 1338.32 2053.29Z" fill="url(#paint20_linear_2316_91)"/>
<path d="M1288.38 2499.41C1259.66 2488.55 1245.19 2456.46 1256.06 2427.75L1293.68 2328.35C1304.54 2299.63 1336.63 2285.16 1365.35 2296.03L1464.74 2333.64C1493.46 2344.51 1507.93 2376.6 1497.06 2405.31C1486.2 2434.03 1454.11 2448.5 1425.39 2437.63L1377.99 2419.69L1360.05 2467.1C1349.18 2495.81 1317.09 2510.28 1288.38 2499.41Z" fill="url(#paint21_linear_2316_91)"/>
<path d="M1442.31 2092.64C1413.6 2081.78 1381.51 2096.24 1370.64 2124.96L1333.03 2224.36C1322.16 2253.07 1336.63 2285.16 1365.34 2296.03L1464.74 2333.64C1493.46 2344.51 1525.55 2330.04 1536.41 2301.33C1547.28 2272.61 1532.81 2240.52 1504.1 2229.66L1456.69 2211.72L1474.63 2164.31C1485.5 2135.6 1471.03 2103.51 1442.31 2092.64Z" fill="url(#paint22_linear_2316_91)"/>
</g>
<g filter="url(#filter14_df_2316_91)">
<path d="M-15.6069 3758.06C13.1082 3768.93 45.1956 3754.46 56.0622 3725.74L93.6776 3626.35C104.544 3597.63 90.0751 3565.54 61.3599 3554.68L-38.0392 3517.06C-66.7544 3506.19 -98.8417 3520.66 -109.708 3549.38C-120.575 3578.09 -106.106 3610.18 -77.3907 3621.05L-29.9849 3638.99L-47.9246 3686.39C-58.7912 3715.11 -44.3221 3747.2 -15.6069 3758.06Z" fill="url(#paint23_linear_2316_91)"/>
<path d="M138.326 3351.29C167.041 3362.16 181.51 3394.24 170.644 3422.96L133.028 3522.36C122.162 3551.07 90.0744 3565.54 61.3593 3554.68L-38.0399 3517.06C-66.755 3506.19 -81.2241 3474.11 -70.3575 3445.39C-59.4909 3416.68 -27.4036 3402.21 1.31159 3413.07L48.7173 3431.01L66.657 3383.61C77.5236 3354.89 109.611 3340.42 138.326 3351.29Z" fill="url(#paint24_linear_2316_91)"/>
<path d="M88.3799 3797.41C59.6647 3786.55 45.1956 3754.46 56.0622 3725.74L93.6776 3626.35C104.544 3597.63 136.632 3583.16 165.347 3594.03L264.746 3631.64C293.461 3642.51 307.93 3674.6 297.063 3703.31C286.197 3732.03 254.109 3746.5 225.394 3735.63L177.989 3717.69L160.049 3765.1C149.182 3793.81 117.095 3808.28 88.3799 3797.41Z" fill="url(#paint25_linear_2316_91)"/>
<path d="M242.313 3390.64C213.598 3379.77 181.51 3394.24 170.644 3422.96L133.028 3522.36C122.162 3551.07 136.631 3583.16 165.346 3594.03L264.745 3631.64C293.46 3642.51 325.548 3628.04 336.414 3599.33C347.281 3570.61 332.812 3538.52 304.097 3527.66L256.691 3509.72L274.631 3462.31C285.497 3433.6 271.028 3401.51 242.313 3390.64Z" fill="url(#paint26_linear_2316_91)"/>
</g>
<g filter="url(#filter15_df_2316_91)">
<path d="M1465.76 1029.1C1471.55 1013.69 1463.76 996.509 1448.36 990.712L1395.04 970.648C1379.64 964.852 1362.45 972.639 1356.66 988.042L1336.59 1041.36C1330.8 1056.76 1338.58 1073.95 1353.99 1079.75C1369.39 1085.54 1386.58 1077.75 1392.37 1062.35L1401.94 1036.92L1427.37 1046.49C1442.77 1052.29 1459.96 1044.5 1465.76 1029.1Z" fill="url(#paint27_linear_2316_91)" fill-opacity="0.44"/>
<path d="M1247.56 946.988C1253.36 931.585 1270.54 923.797 1285.94 929.593L1339.26 949.658C1354.67 955.454 1362.45 972.64 1356.66 988.043L1336.59 1041.36C1330.8 1056.76 1313.61 1064.55 1298.21 1058.76C1282.81 1052.96 1275.02 1035.77 1280.81 1020.37L1290.38 994.942L1264.95 985.373C1249.55 979.577 1241.76 962.391 1247.56 946.988Z" fill="url(#paint28_linear_2316_91)"/>
<path d="M1486.75 973.318C1480.95 988.721 1463.76 996.509 1448.36 990.712L1395.04 970.648C1379.64 964.852 1371.85 947.666 1377.65 932.263L1397.71 878.944C1403.51 863.541 1420.69 855.753 1436.1 861.55C1451.5 867.346 1459.29 884.532 1453.49 899.935L1443.92 925.364L1469.35 934.933C1484.76 940.729 1492.54 957.915 1486.75 973.318Z" fill="url(#paint29_linear_2316_91)"/>
<path d="M1268.55 891.208C1262.75 906.611 1270.54 923.797 1285.94 929.593L1339.26 949.658C1354.67 955.454 1371.85 947.666 1377.65 932.263L1397.71 878.945C1403.51 863.541 1395.72 846.356 1380.32 840.56C1364.92 834.763 1347.73 842.551 1341.93 857.954L1332.36 883.383L1306.94 873.814C1291.53 868.017 1274.35 875.805 1268.55 891.208Z" fill="url(#paint30_linear_2316_91)"/>
</g>
<g filter="url(#filter16_d_2316_91)">
<path d="M1501.45 200.168C1518.68 187.599 1522.46 163.444 1509.89 146.215C1503.46 137.395 1493.98 132.1 1483.96 130.72C1470.13 126.533 1457.88 114.54 1456.32 94.9296C1456.52 94.0268 1456.69 93.1173 1456.82 92.203C1458.23 82.5521 1455.79 72.0512 1449.58 63.5492C1443.15 54.7285 1433.68 49.4338 1423.65 48.0534C1409.82 43.8669 1397.57 31.8736 1396.02 12.2634C1396.22 11.3606 1396.38 10.4511 1396.52 9.53684C1397.93 -0.11409 1395.7 -10.303 1389.5 -18.805C1376.93 -36.0334 1352.78 -39.8107 1335.55 -27.2419C1318.32 -14.6731 1314.54 9.48235 1327.11 26.7108C1333.31 35.2128 1342.34 40.439 1351.96 42.0416C1376.11 47.3625 1381.22 74.6754 1380.35 79.6403C1377.52 95.8082 1363.95 107.122 1344.34 108.678C1343.44 108.48 1342.53 108.314 1341.62 108.18C1331.97 106.769 1321.78 108.991 1313.28 115.193C1296.05 127.762 1292.27 151.917 1304.84 169.146C1317.41 186.374 1341.56 190.152 1358.79 177.583C1367.29 171.38 1372.52 162.356 1374.12 152.735C1379.44 128.58 1407.3 123.838 1412.27 124.708C1436.42 130.029 1441.53 157.342 1440.66 162.306C1438.92 172.274 1441.07 182.91 1447.5 191.731C1460.07 208.96 1484.23 212.737 1501.45 200.168Z" fill="url(#paint31_linear_2316_91)"/>
</g>
<g filter="url(#filter17_d_2316_91)">
<path d="M272.05 28.8186C250.218 15.9083 222.053 23.1409 209.143 44.9731L164.453 120.547C151.543 142.379 158.775 170.543 180.608 183.454L256.181 228.143C278.013 241.054 306.178 233.821 319.088 211.989C331.998 190.157 324.766 161.992 302.933 149.082L266.891 127.768L288.204 91.7255C301.115 69.8933 293.882 41.7289 272.05 28.8186Z" fill="url(#paint32_linear_2316_91)" fill-opacity="0.44"/>
<path d="M89.1655 338.088C67.3333 325.178 60.1007 297.013 73.011 275.181L117.701 199.608C130.611 177.775 158.775 170.543 180.608 183.453L256.181 228.143C278.013 241.053 285.246 269.218 272.336 291.05C259.425 312.882 231.261 320.115 209.429 307.204L173.386 285.891L152.072 321.934C139.162 343.766 110.998 350.998 89.1655 338.088Z" fill="url(#paint33_linear_2316_91)"/>
<path d="M192.988 -17.9338C214.821 -5.02349 222.053 23.1409 209.143 44.9731L164.453 120.547C151.543 142.379 123.378 149.612 101.546 136.701L25.9727 92.0115C4.14047 79.1012 -3.09215 50.9368 9.81816 29.1045C22.7285 7.27229 50.8929 0.0396471 72.7251 12.95L108.768 34.2635L130.081 -1.77922C142.992 -23.6115 171.156 -30.8441 192.988 -17.9338Z" fill="url(#paint34_linear_2316_91)"/>
<path d="M10.1041 291.336C31.9363 304.246 60.1007 297.013 73.011 275.181L117.701 199.608C130.611 177.775 123.378 149.611 101.546 136.701L25.9729 92.0109C4.14065 79.1006 -24.0237 86.3333 -36.9341 108.166C-49.8444 129.998 -42.6118 158.162 -20.7796 171.072L15.2632 192.386L-6.05045 228.429C-18.9608 250.261 -11.7282 278.425 10.1041 291.336Z" fill="url(#paint35_linear_2316_91)"/>
</g>
</g>
<defs>
<filter id="filter0_fn_2316_91" x="-747.923" y="551.8" width="2792.81" height="1037.8" filterUnits="userSpaceOnUse" color-interpolation-filters="sRGB">
<feFlood flood-opacity="0" result="BackgroundImageFix"/>
<feBlend mode="normal" in="SourceGraphic" in2="BackgroundImageFix" result="shape"/>
<feGaussianBlur stdDeviation="100" result="effect1_foregroundBlur_2316_91"/>
<feTurbulence type="fractalNoise" baseFrequency="2 2" stitchTiles="stitch" numOctaves="3" result="noise" seed="9811" />
<feColorMatrix in="noise" type="luminanceToAlpha" result="alphaNoise" />
<feComponentTransfer in="alphaNoise" result="coloredNoise1">
<feFuncA type="discrete" tableValues="1 1 1 1 1 1 1 1 1 1 1 1 1 1 1 1 1 1 1 1 1 1 1 1 1 1 1 1 1 1 1 1 1 1 1 1 1 1 1 1 1 1 1 1 1 1 1 1 1 1 1 0 0 0 0 0 0 0 0 0 0 0 0 0 0 0 0 0 0 0 0 0 0 0 0 0 0 0 0 0 0 0 0 0 0 0 0 0 0 0 0 0 0 0 0 0 0 0 0 0 "/>
</feComponentTransfer>
<feComposite operator="in" in2="effect1_foregroundBlur_2316_91" in="coloredNoise1" result="noise1Clipped" />
<feFlood flood-color="rgba(74, 72, 72, 0.25)" result="color1Flood" />
<feComposite operator="in" in2="noise1Clipped" in="color1Flood" result="color1" />
<feMerge result="effect2_noise_2316_91">
<feMergeNode in="effect1_foregroundBlur_2316_91" />
<feMergeNode in="color1" />
</feMerge>
</filter>
<filter id="filter1_fn_2316_91" x="-1356" y="-528" width="3901" height="2196" filterUnits="userSpaceOnUse" color-interpolation-filters="sRGB">
<feFlood flood-opacity="0" result="BackgroundImageFix"/>
<feBlend mode="normal" in="SourceGraphic" in2="BackgroundImageFix" result="shape"/>
<feGaussianBlur stdDeviation="250" result="effect1_foregroundBlur_2316_91"/>
<feTurbulence type="fractalNoise" baseFrequency="2 2" stitchTiles="stitch" numOctaves="3" result="noise" seed="3278" />
<feColorMatrix in="noise" type="luminanceToAlpha" result="alphaNoise" />
<feComponentTransfer in="alphaNoise" result="coloredNoise1">
<feFuncA type="discrete" tableValues="1 1 1 1 1 1 1 1 1 1 1 1 1 1 1 1 1 1 1 1 1 1 1 1 1 1 1 1 1 1 1 1 1 1 1 1 1 1 1 1 1 1 1 1 1 1 1 1 1 1 1 0 0 0 0 0 0 0 0 0 0 0 0 0 0 0 0 0 0 0 0 0 0 0 0 0 0 0 0 0 0 0 0 0 0 0 0 0 0 0 0 0 0 0 0 0 0 0 0 0 "/>
</feComponentTransfer>
<feComposite operator="in" in2="effect1_foregroundBlur_2316_91" in="coloredNoise1" result="noise1Clipped" />
<feFlood flood-color="rgba(0, 0, 0, 0.25)" result="color1Flood" />
<feComposite operator="in" in2="noise1Clipped" in="color1Flood" result="color1" />
<feMerge result="effect2_noise_2316_91">
<feMergeNode in="effect1_foregroundBlur_2316_91" />
<feMergeNode in="color1" />
</feMerge>
</filter>
<filter id="filter2_nf_2316_91" x="52" y="-13" width="1522.5" height="691.5" filterUnits="userSpaceOnUse" color-interpolation-filters="sRGB">
<feFlood flood-opacity="0" result="BackgroundImageFix"/>
<feBlend mode="normal" in="SourceGraphic" in2="BackgroundImageFix" result="shape"/>
<feTurbulence type="fractalNoise" baseFrequency="2 2" stitchTiles="stitch" numOctaves="3" result="noise" seed="9811" />
<feColorMatrix in="noise" type="luminanceToAlpha" result="alphaNoise" />
<feComponentTransfer in="alphaNoise" result="coloredNoise1">
<feFuncA type="discrete" tableValues="1 1 1 1 1 1 1 1 1 1 1 1 1 1 1 1 1 1 1 1 1 1 1 1 1 1 1 1 1 1 1 1 1 1 1 1 1 1 1 1 1 1 1 1 1 1 1 1 1 1 1 0 0 0 0 0 0 0 0 0 0 0 0 0 0 0 0 0 0 0 0 0 0 0 0 0 0 0 0 0 0 0 0 0 0 0 0 0 0 0 0 0 0 0 0 0 0 0 0 0 "/>
</feComponentTransfer>
<feComposite operator="in" in2="shape" in="coloredNoise1" result="noise1Clipped" />
<feFlood flood-color="rgba(74, 72, 72, 0.25)" result="color1Flood" />
<feComposite operator="in" in2="noise1Clipped" in="color1Flood" result="color1" />
<feMerge result="effect1_noise_2316_91">
<feMergeNode in="shape" />
<feMergeNode in="color1" />
</feMerge>
<feGaussianBlur stdDeviation="100" result="effect2_foregroundBlur_2316_91"/>
</filter>
<filter id="filter3_fn_2316_91" x="188.531" y="-77.8413" width="1397.22" height="738.721" filterUnits="userSpaceOnUse" color-interpolation-filters="sRGB">
<feFlood flood-opacity="0" result="BackgroundImageFix"/>
<feBlend mode="normal" in="SourceGraphic" in2="BackgroundImageFix" result="shape"/>
<feGaussianBlur stdDeviation="100" result="effect1_foregroundBlur_2316_91"/>
<feTurbulence type="fractalNoise" baseFrequency="2 2" stitchTiles="stitch" numOctaves="3" result="noise" seed="9811" />
<feColorMatrix in="noise" type="luminanceToAlpha" result="alphaNoise" />
<feComponentTransfer in="alphaNoise" result="coloredNoise1">
<feFuncA type="discrete" tableValues="1 1 1 1 1 1 1 1 1 1 1 1 1 1 1 1 1 1 1 1 1 1 1 1 1 1 1 1 1 1 1 1 1 1 1 1 1 1 1 1 1 1 1 1 1 1 1 1 1 1 1 0 0 0 0 0 0 0 0 0 0 0 0 0 0 0 0 0 0 0 0 0 0 0 0 0 0 0 0 0 0 0 0 0 0 0 0 0 0 0 0 0 0 0 0 0 0 0 0 0 "/>
</feComponentTransfer>
<feComposite operator="in" in2="effect1_foregroundBlur_2316_91" in="coloredNoise1" result="noise1Clipped" />
<feFlood flood-color="rgba(74, 72, 72, 0.25)" result="color1Flood" />
<feComposite operator="in" in2="noise1Clipped" in="color1Flood" result="color1" />
<feMerge result="effect2_noise_2316_91">
<feMergeNode in="effect1_foregroundBlur_2316_91" />
<feMergeNode in="color1" />
</feMerge>
</filter>
<filter id="filter4_nf_2316_91" x="-389" y="-261" width="1078" height="1369.5" filterUnits="userSpaceOnUse" color-interpolation-filters="sRGB">
<feFlood flood-opacity="0" result="BackgroundImageFix"/>
<feBlend mode="normal" in="SourceGraphic" in2="BackgroundImageFix" result="shape"/>
<feTurbulence type="fractalNoise" baseFrequency="2 2" stitchTiles="stitch" numOctaves="3" result="noise" seed="9811" />
<feColorMatrix in="noise" type="luminanceToAlpha" result="alphaNoise" />
<feComponentTransfer in="alphaNoise" result="coloredNoise1">
<feFuncA type="discrete" tableValues="1 1 1 1 1 1 1 1 1 1 1 1 1 1 1 1 1 1 1 1 1 1 1 1 1 1 1 1 1 1 1 1 1 1 1 1 1 1 1 1 1 1 1 1 1 1 1 1 1 1 1 0 0 0 0 0 0 0 0 0 0 0 0 0 0 0 0 0 0 0 0 0 0 0 0 0 0 0 0 0 0 0 0 0 0 0 0 0 0 0 0 0 0 0 0 0 0 0 0 0 "/>
</feComponentTransfer>
<feComposite operator="in" in2="shape" in="coloredNoise1" result="noise1Clipped" />
<feFlood flood-color="rgba(74, 72, 72, 0.25)" result="color1Flood" />
<feComposite operator="in" in2="noise1Clipped" in="color1Flood" result="color1" />
<feMerge result="effect1_noise_2316_91">
<feMergeNode in="shape" />
<feMergeNode in="color1" />
</feMerge>
<feGaussianBlur stdDeviation="100" result="effect2_foregroundBlur_2316_91"/>
</filter>
<filter id="filter5_fn_2316_91" x="943.5" y="-495.724" width="921.064" height="941.763" filterUnits="userSpaceOnUse" color-interpolation-filters="sRGB">
<feFlood flood-opacity="0" result="BackgroundImageFix"/>
<feBlend mode="normal" in="SourceGraphic" in2="BackgroundImageFix" result="shape"/>
<feGaussianBlur stdDeviation="100" result="effect1_foregroundBlur_2316_91"/>
<feTurbulence type="fractalNoise" baseFrequency="2 2" stitchTiles="stitch" numOctaves="3" result="noise" seed="9811" />
<feColorMatrix in="noise" type="luminanceToAlpha" result="alphaNoise" />
<feComponentTransfer in="alphaNoise" result="coloredNoise1">
<feFuncA type="discrete" tableValues="1 1 1 1 1 1 1 1 1 1 1 1 1 1 1 1 1 1 1 1 1 1 1 1 1 1 1 1 1 1 1 1 1 1 1 1 1 1 1 1 1 1 1 1 1 1 1 1 1 1 1 0 0 0 0 0 0 0 0 0 0 0 0 0 0 0 0 0 0 0 0 0 0 0 0 0 0 0 0 0 0 0 0 0 0 0 0 0 0 0 0 0 0 0 0 0 0 0 0 0 "/>
</feComponentTransfer>
<feComposite operator="in" in2="effect1_foregroundBlur_2316_91" in="coloredNoise1" result="noise1Clipped" />
<feFlood flood-color="rgba(74, 72, 72, 0.25)" result="color1Flood" />
<feComposite operator="in" in2="noise1Clipped" in="color1Flood" result="color1" />
<feMerge result="effect2_noise_2316_91">
<feMergeNode in="effect1_foregroundBlur_2316_91" />
<feMergeNode in="color1" />
</feMerge>
</filter>
<filter id="filter6_fn_2316_91" x="-264.467" y="908.676" width="2039.24" height="1467.19" filterUnits="userSpaceOnUse" color-interpolation-filters="sRGB">
<feFlood flood-opacity="0" result="BackgroundImageFix"/>
<feBlend mode="normal" in="SourceGraphic" in2="BackgroundImageFix" result="shape"/>
<feGaussianBlur stdDeviation="100" result="effect1_foregroundBlur_2316_91"/>
<feTurbulence type="fractalNoise" baseFrequency="2 2" stitchTiles="stitch" numOctaves="3" result="noise" seed="9811" />
<feColorMatrix in="noise" type="luminanceToAlpha" result="alphaNoise" />
<feComponentTransfer in="alphaNoise" result="coloredNoise1">
<feFuncA type="discrete" tableValues="1 1 1 1 1 1 1 1 1 1 1 1 1 1 1 1 1 1 1 1 1 1 1 1 1 1 1 1 1 1 1 1 1 1 1 1 1 1 1 1 1 1 1 1 1 1 1 1 1 1 1 0 0 0 0 0 0 0 0 0 0 0 0 0 0 0 0 0 0 0 0 0 0 0 0 0 0 0 0 0 0 0 0 0 0 0 0 0 0 0 0 0 0 0 0 0 0 0 0 0 "/>
</feComponentTransfer>
<feComposite operator="in" in2="effect1_foregroundBlur_2316_91" in="coloredNoise1" result="noise1Clipped" />
<feFlood flood-color="rgba(74, 72, 72, 0.25)" result="color1Flood" />
<feComposite operator="in" in2="noise1Clipped" in="color1Flood" result="color1" />
<feMerge result="effect2_noise_2316_91">
<feMergeNode in="effect1_foregroundBlur_2316_91" />
<feMergeNode in="color1" />
</feMerge>
</filter>
<filter id="filter7_fn_2316_91" x="-236.475" y="226.699" width="2207.1" height="938.717" filterUnits="userSpaceOnUse" color-interpolation-filters="sRGB">
<feFlood flood-opacity="0" result="BackgroundImageFix"/>
<feBlend mode="normal" in="SourceGraphic" in2="BackgroundImageFix" result="shape"/>
<feGaussianBlur stdDeviation="100" result="effect1_foregroundBlur_2316_91"/>
<feTurbulence type="fractalNoise" baseFrequency="2 2" stitchTiles="stitch" numOctaves="3" result="noise" seed="9811" />
<feColorMatrix in="noise" type="luminanceToAlpha" result="alphaNoise" />
<feComponentTransfer in="alphaNoise" result="coloredNoise1">
<feFuncA type="discrete" tableValues="1 1 1 1 1 1 1 1 1 1 1 1 1 1 1 1 1 1 1 1 1 1 1 1 1 1 1 1 1 1 1 1 1 1 1 1 1 1 1 1 1 1 1 1 1 1 1 1 1 1 1 0 0 0 0 0 0 0 0 0 0 0 0 0 0 0 0 0 0 0 0 0 0 0 0 0 0 0 0 0 0 0 0 0 0 0 0 0 0 0 0 0 0 0 0 0 0 0 0 0 "/>
</feComponentTransfer>
<feComposite operator="in" in2="effect1_foregroundBlur_2316_91" in="coloredNoise1" result="noise1Clipped" />
<feFlood flood-color="rgba(74, 72, 72, 0.25)" result="color1Flood" />
<feComposite operator="in" in2="noise1Clipped" in="color1Flood" result="color1" />
<feMerge result="effect2_noise_2316_91">
<feMergeNode in="effect1_foregroundBlur_2316_91" />
<feMergeNode in="color1" />
</feMerge>
</filter>
<filter id="filter8_d_2316_91" x="237.755" y="2180.32" width="328.018" height="360.556" filterUnits="userSpaceOnUse" color-interpolation-filters="sRGB">
<feFlood flood-opacity="0" result="BackgroundImageFix"/>
<feColorMatrix in="SourceAlpha" type="matrix" values="0 0 0 0 0 0 0 0 0 0 0 0 0 0 0 0 0 0 127 0" result="hardAlpha"/>
<feOffset dy="4"/>
<feGaussianBlur stdDeviation="2"/>
<feComposite in2="hardAlpha" operator="out"/>
<feColorMatrix type="matrix" values="0 0 0 0 0 0 0 0 0 0 0 0 0 0 0 0 0 0 0.25 0"/>
<feBlend mode="normal" in2="BackgroundImageFix" result="effect1_dropShadow_2316_91"/>
<feBlend mode="normal" in="BackgroundImageFix" in2="effect1_dropShadow_2316_91" result="BackgroundImageFix"/>
<feBlend mode="normal" in="SourceGraphic" in2="BackgroundImageFix" result="shape"/>
</filter>
<filter id="filter9_d_2316_91" x="1152.82" y="3192.75" width="399.768" height="310.571" filterUnits="userSpaceOnUse" color-interpolation-filters="sRGB">
<feFlood flood-opacity="0" result="BackgroundImageFix"/>
<feColorMatrix in="SourceAlpha" type="matrix" values="0 0 0 0 0 0 0 0 0 0 0 0 0 0 0 0 0 0 127 0" result="hardAlpha"/>
<feOffset dy="4"/>
<feGaussianBlur stdDeviation="2"/>
<feComposite in2="hardAlpha" operator="out"/>
<feColorMatrix type="matrix" values="0 0 0 0 0 0 0 0 0 0 0 0 0 0 0 0 0 0 0.25 0"/>
<feBlend mode="normal" in2="BackgroundImageFix" result="effect1_dropShadow_2316_91"/>
<feBlend mode="normal" in="BackgroundImageFix" in2="effect1_dropShadow_2316_91" result="BackgroundImageFix"/>
<feBlend mode="normal" in="SourceGraphic" in2="BackgroundImageFix" result="shape"/>
</filter>
<filter id="filter10_fn_2316_91" x="-379.617" y="2265.14" width="1201.56" height="965.291" filterUnits="userSpaceOnUse" color-interpolation-filters="sRGB">
<feFlood flood-opacity="0" result="BackgroundImageFix"/>
<feBlend mode="normal" in="SourceGraphic" in2="BackgroundImageFix" result="shape"/>
<feGaussianBlur stdDeviation="100" result="effect1_foregroundBlur_2316_91"/>
<feTurbulence type="fractalNoise" baseFrequency="2 2" stitchTiles="stitch" numOctaves="3" result="noise" seed="9811" />
<feColorMatrix in="noise" type="luminanceToAlpha" result="alphaNoise" />
<feComponentTransfer in="alphaNoise" result="coloredNoise1">
<feFuncA type="discrete" tableValues="1 1 1 1 1 1 1 1 1 1 1 1 1 1 1 1 1 1 1 1 1 1 1 1 1 1 1 1 1 1 1 1 1 1 1 1 1 1 1 1 1 1 1 1 1 1 1 1 1 1 1 0 0 0 0 0 0 0 0 0 0 0 0 0 0 0 0 0 0 0 0 0 0 0 0 0 0 0 0 0 0 0 0 0 0 0 0 0 0 0 0 0 0 0 0 0 0 0 0 0 "/>
</feComponentTransfer>
<feComposite operator="in" in2="effect1_foregroundBlur_2316_91" in="coloredNoise1" result="noise1Clipped" />
<feFlood flood-color="rgba(74, 72, 72, 0.25)" result="color1Flood" />
<feComposite operator="in" in2="noise1Clipped" in="color1Flood" result="color1" />
<feMerge result="effect2_noise_2316_91">
<feMergeNode in="effect1_foregroundBlur_2316_91" />
<feMergeNode in="color1" />
</feMerge>
</filter>
<filter id="filter11_f_2316_91" x="-401.569" y="1506.21" width="2075.5" height="684.395" filterUnits="userSpaceOnUse" color-interpolation-filters="sRGB">
<feFlood flood-opacity="0" result="BackgroundImageFix"/>
<feBlend mode="normal" in="SourceGraphic" in2="BackgroundImageFix" result="shape"/>
<feGaussianBlur stdDeviation="100" result="effect1_foregroundBlur_2316_91"/>
</filter>
<filter id="filter12_d_2316_91" x="1165.19" y="1672.27" width="207.902" height="165.175" filterUnits="userSpaceOnUse" color-interpolation-filters="sRGB">
<feFlood flood-opacity="0" result="BackgroundImageFix"/>
<feColorMatrix in="SourceAlpha" type="matrix" values="0 0 0 0 0 0 0 0 0 0 0 0 0 0 0 0 0 0 127 0" result="hardAlpha"/>
<feOffset dy="4"/>
<feGaussianBlur stdDeviation="2"/>
<feComposite in2="hardAlpha" operator="out"/>
<feColorMatrix type="matrix" values="0 0 0 0 0 0 0 0 0 0 0 0 0 0 0 0 0 0 0.25 0"/>
<feBlend mode="normal" in2="BackgroundImageFix" result="effect1_dropShadow_2316_91"/>
<feBlend mode="normal" in="BackgroundImageFix" in2="effect1_dropShadow_2316_91" result="BackgroundImageFix"/>
<feBlend mode="normal" in="SourceGraphic" in2="BackgroundImageFix" result="shape"/>
</filter>
<filter id="filter13_df_2316_91" x="1006.12" y="1969.12" width="614.473" height="614.474" filterUnits="userSpaceOnUse" color-interpolation-filters="sRGB">
<feFlood flood-opacity="0" result="BackgroundImageFix"/>
<feColorMatrix in="SourceAlpha" type="matrix" values="0 0 0 0 0 0 0 0 0 0 0 0 0 0 0 0 0 0 127 0" result="hardAlpha"/>
<feOffset dy="3.58052"/>
<feGaussianBlur stdDeviation="1.79026"/>
<feComposite in2="hardAlpha" operator="out"/>
<feColorMatrix type="matrix" values="0 0 0 0 0 0 0 0 0 0 0 0 0 0 0 0 0 0 0.25 0"/>
<feBlend mode="normal" in2="BackgroundImageFix" result="effect1_dropShadow_2316_91"/>
<feBlend mode="normal" in="SourceGraphic" in2="effect1_dropShadow_2316_91" result="shape"/>
<feGaussianBlur stdDeviation="40.2809" result="effect2_foregroundBlur_2316_91"/>
</filter>
<filter id="filter14_df_2316_91" x="-193.884" y="3267.11" width="614.473" height="614.474" filterUnits="userSpaceOnUse" color-interpolation-filters="sRGB">
<feFlood flood-opacity="0" result="BackgroundImageFix"/>
<feColorMatrix in="SourceAlpha" type="matrix" values="0 0 0 0 0 0 0 0 0 0 0 0 0 0 0 0 0 0 127 0" result="hardAlpha"/>
<feOffset dy="3.58052"/>
<feGaussianBlur stdDeviation="1.79026"/>
<feComposite in2="hardAlpha" operator="out"/>
<feColorMatrix type="matrix" values="0 0 0 0 0 0 0 0 0 0 0 0 0 0 0 0 0 0 0.25 0"/>
<feBlend mode="normal" in2="BackgroundImageFix" result="effect1_dropShadow_2316_91"/>
<feBlend mode="normal" in="SourceGraphic" in2="effect1_dropShadow_2316_91" result="shape"/>
<feGaussianBlur stdDeviation="40.2809" result="effect2_foregroundBlur_2316_91"/>
</filter>
<filter id="filter15_df_2316_91" x="1215.64" y="808.642" width="303.022" height="303.021" filterUnits="userSpaceOnUse" color-interpolation-filters="sRGB">
<feFlood flood-opacity="0" result="BackgroundImageFix"/>
<feColorMatrix in="SourceAlpha" type="matrix" values="0 0 0 0 0 0 0 0 0 0 0 0 0 0 0 0 0 0 127 0" result="hardAlpha"/>
<feOffset dy="3.42351"/>
<feGaussianBlur stdDeviation="1.71175"/>
<feComposite in2="hardAlpha" operator="out"/>
<feColorMatrix type="matrix" values="0 0 0 0 0 0 0 0 0 0 0 0 0 0 0 0 0 0 0.25 0"/>
<feBlend mode="normal" in2="BackgroundImageFix" result="effect1_dropShadow_2316_91"/>
<feBlend mode="normal" in="SourceGraphic" in2="effect1_dropShadow_2316_91" result="shape"/>
<feGaussianBlur stdDeviation="15" result="effect2_foregroundBlur_2316_91"/>
</filter>
<filter id="filter16_d_2316_91" x="1293.42" y="-34.6636" width="227.896" height="250.253" filterUnits="userSpaceOnUse" color-interpolation-filters="sRGB">
<feFlood flood-opacity="0" result="BackgroundImageFix"/>
<feColorMatrix in="SourceAlpha" type="matrix" values="0 0 0 0 0 0 0 0 0 0 0 0 0 0 0 0 0 0 127 0" result="hardAlpha"/>
<feOffset dy="4"/>
<feGaussianBlur stdDeviation="2"/>
<feComposite in2="hardAlpha" operator="out"/>
<feColorMatrix type="matrix" values="0 0 0 0 0 0 0 0 0 0 0 0 0 0 0 0 0 0 0.25 0"/>
<feBlend mode="normal" in2="BackgroundImageFix" result="effect1_dropShadow_2316_91"/>
<feBlend mode="normal" in="BackgroundImageFix" in2="effect1_dropShadow_2316_91" result="BackgroundImageFix"/>
<feBlend mode="normal" in="SourceGraphic" in2="BackgroundImageFix" result="shape"/>
</filter>
<filter id="filter17_d_2316_91" x="-46.7594" y="-24.3354" width="375.672" height="375.672" filterUnits="userSpaceOnUse" color-interpolation-filters="sRGB">
<feFlood flood-opacity="0" result="BackgroundImageFix"/>
<feColorMatrix in="SourceAlpha" type="matrix" values="0 0 0 0 0 0 0 0 0 0 0 0 0 0 0 0 0 0 127 0" result="hardAlpha"/>
<feOffset dy="3.42351"/>
<feGaussianBlur stdDeviation="1.71175"/>
<feComposite in2="hardAlpha" operator="out"/>
<feColorMatrix type="matrix" values="0 0 0 0 0 0 0 0 0 0 0 0 0 0 0 0 0 0 0.25 0"/>
<feBlend mode="normal" in2="BackgroundImageFix" result="effect1_dropShadow_2316_91"/>
<feBlend mode="normal" in="SourceGraphic" in2="effect1_dropShadow_2316_91" result="shape"/>
</filter>
<linearGradient id="paint0_linear_2316_91" x1="1201.91" y1="0.000130564" x2="-2577.95" y2="2040.13" gradientUnits="userSpaceOnUse">
<stop stop-color="#E3EF26"/>
<stop offset="0.557692" stop-color="#076653"/>
<stop offset="0.9999" stop-color="#0C342C"/>
</linearGradient>
<linearGradient id="paint1_linear_2316_91" x1="869.909" y1="159.333" x2="607.902" y2="2238.24" gradientUnits="userSpaceOnUse">
<stop stop-color="#0E8057"/>
<stop offset="1" stop-color="#C8ED04"/>
</linearGradient>
<linearGradient id="paint2_linear_2316_91" x1="1152.91" y1="-481.193" x2="1049.42" y2="565.183" gradientUnits="userSpaceOnUse">
<stop stop-color="#FFFDEE"/>
<stop offset="1" stop-color="#FFEE00"/>
</linearGradient>
<linearGradient id="paint3_linear_2316_91" x1="1133.71" y1="227.764" x2="1701.44" y2="787.415" gradientUnits="userSpaceOnUse">
<stop stop-color="#E3EF26"/>
<stop offset="0.557692" stop-color="#076653"/>
</linearGradient>
<linearGradient id="paint4_linear_2316_91" x1="-12.8537" y1="746" x2="-12.8537" y2="964.293" gradientUnits="userSpaceOnUse">
<stop offset="0.0817308" stop-color="white"/>
<stop offset="0.697115" stop-color="#999999"/>
</linearGradient>
<linearGradient id="paint5_linear_2316_91" x1="305.854" y1="746" x2="305.854" y2="964.293" gradientUnits="userSpaceOnUse">
<stop offset="0.0817308" stop-color="white"/>
<stop offset="0.697115" stop-color="#999999"/>
</linearGradient>
<linearGradient id="paint6_linear_2316_91" x1="146.5" y1="746" x2="146.5" y2="964.293" gradientUnits="userSpaceOnUse">
<stop offset="0.0817308" stop-color="white"/>
<stop offset="0.697115" stop-color="#999999"/>
</linearGradient>
<linearGradient id="paint7_linear_2316_91" x1="-12.8537" y1="892.256" x2="-12.8537" y2="1110.55" gradientUnits="userSpaceOnUse">
<stop offset="0.0817308" stop-color="white"/>
<stop offset="0.697115" stop-color="#999999"/>
</linearGradient>
<linearGradient id="paint8_linear_2316_91" x1="305.854" y1="892.256" x2="305.854" y2="1110.55" gradientUnits="userSpaceOnUse">
<stop offset="0.0817308" stop-color="white"/>
<stop offset="0.697115" stop-color="#999999"/>
</linearGradient>
<linearGradient id="paint9_linear_2316_91" x1="146.5" y1="892.256" x2="146.5" y2="1110.55" gradientUnits="userSpaceOnUse">
<stop offset="0.0817308" stop-color="white"/>
<stop offset="0.697115" stop-color="#999999"/>
</linearGradient>
<linearGradient id="paint10_linear_2316_91" x1="408.201" y1="2617.27" x2="500.642" y2="2003.99" gradientUnits="userSpaceOnUse">
<stop stop-color="#E3EF26"/>
<stop offset="0.557692" stop-color="#076653"/>
<stop offset="0.9999" stop-color="#0C342C"/>
</linearGradient>
<linearGradient id="paint11_linear_2316_91" x1="1215.47" y1="3166.43" x2="1480.67" y2="3727.08" gradientUnits="userSpaceOnUse">
<stop stop-color="#E3EF26"/>
<stop offset="0.557692" stop-color="#076653"/>
<stop offset="0.9999" stop-color="#0C342C"/>
</linearGradient>
<linearGradient id="paint12_linear_2316_91" x1="-49.5189" y1="1748.86" x2="-41.1604" y2="1496.18" gradientUnits="userSpaceOnUse">
<stop stop-color="#0E8057"/>
<stop offset="1" stop-color="#C8ED04"/>
</linearGradient>
<linearGradient id="paint13_linear_2316_91" x1="232.163" y1="1462.35" x2="-20.3363" y2="1475" gradientUnits="userSpaceOnUse">
<stop stop-color="#C8ED04"/>
<stop offset="1" stop-color="#0E8057"/>
</linearGradient>
<linearGradient id="paint14_linear_2316_91" x1="-16.075" y1="1781.74" x2="236.424" y2="1769.09" gradientUnits="userSpaceOnUse">
<stop stop-color="#C8ED04"/>
<stop offset="1" stop-color="#0E8057"/>
</linearGradient>
<linearGradient id="paint15_linear_2316_91" x1="265.607" y1="1495.23" x2="257.248" y2="1747.91" gradientUnits="userSpaceOnUse">
<stop stop-color="#0E8057"/>
<stop offset="1" stop-color="#C8ED04"/>
</linearGradient>
<linearGradient id="paint16_linear_2316_91" x1="500.314" y1="2700.72" x2="1031.09" y2="3295.53" gradientUnits="userSpaceOnUse">
<stop stop-color="#E3EF26"/>
<stop offset="0.557692" stop-color="#076653"/>
<stop offset="0.928728" stop-color="#0C342C"/>
</linearGradient>
<linearGradient id="paint17_linear_2316_91" x1="172.689" y1="1961.61" x2="-735.087" y2="1285.91" gradientUnits="userSpaceOnUse">
<stop stop-color="#E3EF26"/>
<stop offset="0.557692" stop-color="#076653"/>
<stop offset="0.928728" stop-color="#0C342C"/>
</linearGradient>
<linearGradient id="paint18_linear_2316_91" x1="1140.26" y1="1734.37" x2="1434.42" y2="1858.03" gradientUnits="userSpaceOnUse">
<stop stop-color="#E3EF26"/>
<stop offset="0.557692" stop-color="#076653"/>
<stop offset="0.9999" stop-color="#0C342C"/>
</linearGradient>
<linearGradient id="paint19_linear_2316_91" x1="1216.05" y1="2464.18" x2="1117.47" y2="2218.83" gradientUnits="userSpaceOnUse">
<stop stop-color="#0E8057"/>
<stop offset="1" stop-color="#C8ED04"/>
</linearGradient>
<linearGradient id="paint20_linear_2316_91" x1="1364.78" y1="2071.17" x2="1128.46" y2="2189.78" gradientUnits="userSpaceOnUse">
<stop stop-color="#C8ED04"/>
<stop offset="1" stop-color="#0E8057"/>
</linearGradient>
<linearGradient id="paint21_linear_2316_91" x1="1261.93" y1="2481.54" x2="1498.24" y2="2362.93" gradientUnits="userSpaceOnUse">
<stop stop-color="#C8ED04"/>
<stop offset="1" stop-color="#0E8057"/>
</linearGradient>
<linearGradient id="paint22_linear_2316_91" x1="1410.65" y1="2088.53" x2="1509.24" y2="2333.87" gradientUnits="userSpaceOnUse">
<stop stop-color="#0E8057"/>
<stop offset="1" stop-color="#C8ED04"/>
</linearGradient>
<linearGradient id="paint23_linear_2316_91" x1="16.0524" y1="3762.18" x2="-82.5326" y2="3516.83" gradientUnits="userSpaceOnUse">
<stop stop-color="#0E8057"/>
<stop offset="1" stop-color="#C8ED04"/>
</linearGradient>
<linearGradient id="paint24_linear_2316_91" x1="164.777" y1="3369.17" x2="-71.5376" y2="3487.78" gradientUnits="userSpaceOnUse">
<stop stop-color="#C8ED04"/>
<stop offset="1" stop-color="#0E8057"/>
</linearGradient>
<linearGradient id="paint25_linear_2316_91" x1="61.9289" y1="3779.54" x2="298.244" y2="3660.93" gradientUnits="userSpaceOnUse">
<stop stop-color="#C8ED04"/>
<stop offset="1" stop-color="#0E8057"/>
</linearGradient>
<linearGradient id="paint26_linear_2316_91" x1="210.654" y1="3386.53" x2="309.239" y2="3631.87" gradientUnits="userSpaceOnUse">
<stop stop-color="#0E8057"/>
<stop offset="1" stop-color="#C8ED04"/>
</linearGradient>
<linearGradient id="paint27_linear_2316_91" x1="1467.93" y1="1012.12" x2="1336.51" y2="1065.21" gradientUnits="userSpaceOnUse">
<stop stop-color="#0E8057"/>
<stop offset="1" stop-color="#C8ED04"/>
</linearGradient>
<linearGradient id="paint28_linear_2316_91" x1="1257.12" y1="932.792" x2="1320.93" y2="1059.35" gradientUnits="userSpaceOnUse">
<stop stop-color="#C8ED04"/>
<stop offset="1" stop-color="#0E8057"/>
</linearGradient>
<linearGradient id="paint29_linear_2316_91" x1="1477.19" y1="987.514" x2="1413.38" y2="860.959" gradientUnits="userSpaceOnUse">
<stop stop-color="#C8ED04"/>
<stop offset="1" stop-color="#0E8057"/>
</linearGradient>
<linearGradient id="paint30_linear_2316_91" x1="1266.38" y1="908.183" x2="1397.79" y2="855.094" gradientUnits="userSpaceOnUse">
<stop stop-color="#0E8057"/>
<stop offset="1" stop-color="#C8ED04"/>
</linearGradient>
<linearGradient id="paint31_linear_2316_91" x1="1411.79" y1="265.583" x2="1475.31" y2="-155.824" gradientUnits="userSpaceOnUse">
<stop stop-color="#E3EF26"/>
<stop offset="0.557692" stop-color="#076653"/>
<stop offset="0.9999" stop-color="#0C342C"/>
</linearGradient>
<linearGradient id="paint32_linear_2316_91" x1="246.865" y1="20.9874" x2="292.361" y2="234.63" gradientUnits="userSpaceOnUse">
<stop stop-color="#0E8057"/>
<stop offset="1" stop-color="#C8ED04"/>
</linearGradient>
<linearGradient id="paint33_linear_2316_91" x1="70.1687" y1="319.793" x2="279.298" y2="256.721" gradientUnits="userSpaceOnUse">
<stop stop-color="#C8ED04"/>
<stop offset="1" stop-color="#0E8057"/>
</linearGradient>
<linearGradient id="paint34_linear_2316_91" x1="211.985" y1="0.361375" x2="2.85615" y2="63.4337" gradientUnits="userSpaceOnUse">
<stop stop-color="#C8ED04"/>
<stop offset="1" stop-color="#0E8057"/>
</linearGradient>
<linearGradient id="paint35_linear_2316_91" x1="35.2887" y1="299.167" x2="-10.207" y2="85.5242" gradientUnits="userSpaceOnUse">
<stop stop-color="#0E8057"/>
<stop offset="1" stop-color="#C8ED04"/>
</linearGradient>
<clipPath id="clip0_2316_91">
<rect width="1440" height="4149" fill="white"/>
</clipPath>
</defs>
</svg>
