<svg width="385" height="78" viewBox="0 0 385 78" fill="none" xmlns="http://www.w3.org/2000/svg">
<g filter="url(#filter0_d_2259_2882)">
<path d="M18.88 68.3521H4V1.15205H18.784C39.136 28.8 45.664 39.0721 51.328 52.0321L55.456 50.304C50.56 36.576 49.792 30.336 49.888 1.15205H64.768V68.3521H49.984C29.632 40.704 23.104 30.432 17.536 17.472L13.312 19.2C18.208 32.928 18.976 39.168 18.88 68.3521ZM80.3125 68.3521V1.15205H125.625V13.056H95.1925V28.32H121.977V40.032H95.1925V56.3521H126.489V68.3521H80.3125ZM166.063 69.5041C148.015 69.5041 136.687 61.1521 136.591 47.04H151.471C151.759 53.3761 156.751 57.3121 166.063 57.3121C173.551 57.3121 178.735 54.8161 178.735 49.536C178.735 35.0401 137.743 46.56 137.743 20.448C137.743 7.10405 148.399 4.95911e-05 163.951 4.95911e-05C180.367 4.95911e-05 191.119 8.06405 191.695 21.504H177.103C176.815 15.84 172.015 12.192 164.047 12.192C157.327 12.192 152.239 14.688 152.239 19.776C152.239 34.1761 193.711 23.136 193.711 48.9601C193.711 61.7281 183.343 69.5041 166.063 69.5041ZM220.849 68.3521V14.5921H199.825V1.15205H256.849V14.5921H235.825V68.3521H220.849ZM319.702 69.6001C300.694 69.6001 289.654 58.3681 289.654 38.784V1.15205H304.63V38.496C304.63 50.208 309.718 56.0641 319.702 56.0641C329.782 56.0641 334.678 50.304 334.678 38.496V1.15205H349.654V38.784C349.654 58.3681 338.71 69.6001 319.702 69.6001ZM365.125 68.3521V1.15205H380.101V68.3521H365.125Z" fill="url(#paint0_linear_2259_2882)" shape-rendering="crispEdges"/>
</g>
<defs>
<filter id="filter0_d_2259_2882" x="0" y="0" width="384.101" height="77.6001" filterUnits="userSpaceOnUse" color-interpolation-filters="sRGB">
<feFlood flood-opacity="0" result="BackgroundImageFix"/>
<feColorMatrix in="SourceAlpha" type="matrix" values="0 0 0 0 0 0 0 0 0 0 0 0 0 0 0 0 0 0 127 0" result="hardAlpha"/>
<feOffset dy="4"/>
<feGaussianBlur stdDeviation="2"/>
<feComposite in2="hardAlpha" operator="out"/>
<feColorMatrix type="matrix" values="0 0 0 0 0 0 0 0 0 0 0 0 0 0 0 0 0 0 0.69 0"/>
<feBlend mode="normal" in2="BackgroundImageFix" result="effect1_dropShadow_2259_2882"/>
<feBlend mode="normal" in="SourceGraphic" in2="effect1_dropShadow_2259_2882" result="shape"/>
</filter>
<linearGradient id="paint0_linear_2259_2882" x1="78.1533" y1="-94.9371" x2="73.1089" y2="204.141" gradientUnits="userSpaceOnUse">
<stop offset="0.323722" stop-color="#0C342C" stop-opacity="0.76"/>
<stop offset="0.518977" stop-color="#009477"/>
<stop offset="0.626009" stop-color="#186757"/>
<stop offset="0.850962" stop-color="#186757"/>
</linearGradient>
</defs>
</svg>
