<svg width="499" height="633" viewBox="0 0 499 633" fill="none" xmlns="http://www.w3.org/2000/svg">
<rect x="36.002" y="15.6968" width="532.374" height="9.99996" transform="rotate(90 36.002 15.6968)" fill="url(#paint0_linear_2731_1090)"/>
<rect x="36.002" y="15.6968" width="342.707" height="9.99997" transform="rotate(90 36.002 15.6968)" fill="url(#paint1_linear_2731_1090)"/>
<rect x="36.001" y="171.354" width="175.278" height="9.99999" transform="rotate(90 36.001 171.354)" fill="url(#paint2_linear_2731_1090)"/>
<rect x="36.001" y="26.8154" width="160.889" height="9.99999" transform="rotate(90 36.001 26.8154)" fill="url(#paint3_linear_2731_1090)"/>
<path d="M127.49 77.3388C133.953 62.7893 127.399 45.7548 112.849 39.291C105.4 35.9817 97.2996 36.0849 90.2998 38.9264C79.7938 41.3694 55.2874 46.963 51.0148 28.0809C50.9069 27.6042 50.7038 27.1543 50.5238 26.7001C48.6241 21.9059 44.918 17.8236 39.8329 15.5645C29.5286 10.9868 17.4643 15.629 12.8865 25.9334C8.30876 36.2377 12.951 48.302 23.2553 52.8798C28.3404 55.1388 33.8541 55.1525 38.6851 53.3485C56.5645 46.6718 72.7689 71.9548 74.0558 75.4908C76.6394 82.5898 81.9929 88.67 89.442 91.9794C103.991 98.4431 121.026 91.8883 127.49 77.3388Z" fill="url(#paint4_linear_2731_1090)"/>
<ellipse cx="102.374" cy="65.0528" rx="40.4379" ry="40.8848" transform="rotate(76.9141 102.374 65.0528)" fill="black" fill-opacity="0.01"/>
<path d="M127.491 238.228C133.954 223.678 127.4 206.644 112.85 200.18C105.401 196.871 97.3005 196.974 90.3008 199.816C79.7948 202.259 55.2883 207.852 51.0157 188.97C50.9079 188.493 50.7048 188.043 50.5248 187.589C48.6251 182.795 44.9189 178.713 39.8339 176.454C29.5296 171.876 17.4653 176.518 12.8875 186.823C8.30973 197.127 12.952 209.191 23.2563 213.769C28.3414 216.028 33.855 216.042 38.6861 214.238C56.5654 207.561 72.7699 232.844 74.0568 236.38C76.6404 243.479 81.9939 249.559 89.443 252.869C103.992 259.332 121.027 252.777 127.491 238.228Z" fill="url(#paint5_linear_2731_1090)"/>
<ellipse cx="102.374" cy="225.942" rx="40.4379" ry="40.8848" transform="rotate(76.9141 102.374 225.942)" fill="black" fill-opacity="0.01"/>
<path d="M126.49 410.236C132.953 395.686 126.399 378.652 111.849 372.188C104.4 368.879 96.2996 368.982 89.2998 371.823C78.7938 374.266 54.2874 379.86 50.0148 360.978C49.9069 360.501 49.7038 360.051 49.5238 359.597C47.6241 354.803 43.918 350.721 38.8329 348.461C28.5286 343.884 16.4643 348.526 11.8865 358.83C7.30876 369.135 11.951 381.199 22.2553 385.777C27.3404 388.036 32.8541 388.05 37.6851 386.245C55.5645 379.569 71.7689 404.852 73.0558 408.388C75.6394 415.487 80.9929 421.567 88.442 424.876C102.991 431.34 120.026 424.785 126.49 410.236Z" fill="url(#paint6_linear_2731_1090)"/>
<ellipse cx="101.373" cy="397.95" rx="40.4379" ry="40.8848" transform="rotate(76.9141 101.373 397.95)" fill="black" fill-opacity="0.01"/>
<path d="M126.492 595.979C132.955 581.429 126.401 564.395 111.851 557.931C104.402 554.622 96.3015 554.725 89.3018 557.567C78.7958 560.01 54.2893 565.603 50.0167 546.721C49.9089 546.244 49.7058 545.794 49.5258 545.34C47.6261 540.546 43.9199 536.464 38.8349 534.205C28.5305 529.627 16.4662 534.269 11.8885 544.573C7.31071 554.878 11.953 566.942 22.2573 571.52C27.3423 573.779 32.856 573.793 37.687 571.989C55.5664 565.312 71.7708 590.595 73.0578 594.131C75.6414 601.23 80.9949 607.31 88.444 610.62C102.993 617.083 120.028 610.528 126.492 595.979Z" fill="url(#paint7_linear_2731_1090)"/>
<ellipse cx="101.375" cy="583.693" rx="40.4379" ry="40.8848" transform="rotate(76.9141 101.375 583.693)" fill="black" fill-opacity="0.01"/>
<path d="M150.441 241.705V240.625C153.201 240.265 153.201 240.265 153.201 237.425V220.065C153.201 217.225 153.201 217.225 150.441 216.865V215.785H161.721V216.865C158.961 217.225 158.961 217.225 158.961 220.065V237.305C158.961 240.145 159.081 240.385 161.641 240.385H162.961C166.561 240.385 168.561 238.265 170.601 233.585H171.641C171.561 235.745 170.961 241.065 170.521 241.705H150.441ZM188.791 235.945L189.351 236.465C189.111 237.265 187.831 242.225 182.111 242.225C177.391 242.225 173.871 239.185 173.871 233.145C173.871 226.265 177.991 223.345 182.151 223.345C187.151 223.345 189.191 226.065 189.191 230.585L188.671 231.065H178.871V231.225C178.871 235.425 180.591 238.185 184.271 238.185C186.951 238.185 188.231 236.385 188.791 235.945ZM181.911 224.705C180.111 224.705 179.111 226.265 178.911 229.865H184.391C184.391 226.625 183.831 224.705 181.911 224.705ZM209.696 239.345L210.016 239.905C208.936 241.185 207.496 242.225 205.616 242.225C203.536 242.225 202.096 241.265 201.816 239.145C200.496 240.985 198.816 242.225 196.296 242.225C193.416 242.225 191.456 240.305 191.456 237.785C191.456 233.785 195.456 232.865 199.616 231.385L201.776 230.625V229.025C201.776 225.705 201.096 224.705 199.376 224.705C198.096 224.705 197.296 225.265 197.576 229.545C195.536 229.865 192.656 229.985 192.656 227.505C192.656 225.305 195.456 223.345 200.056 223.345C205.016 223.345 207.176 224.465 207.176 229.425V236.945C207.176 239.305 207.696 239.705 208.536 239.705C209.016 239.705 209.496 239.425 209.696 239.345ZM199.096 239.185C200.216 239.185 201.056 238.825 201.776 237.985V232.105L200.616 232.545C198.536 233.305 197.096 234.105 197.016 236.465C196.976 238.105 197.976 239.185 199.096 239.185ZM229.132 236.505C229.132 239.585 229.132 239.585 231.132 240.705V241.305C230.092 241.545 225.412 242.025 223.732 242.025L224.132 238.705L223.932 238.585C222.652 240.265 220.612 242.225 217.692 242.225C214.172 242.225 211.332 240.065 211.332 233.545C211.332 226.065 215.972 223.305 220.652 223.305C221.812 223.305 222.852 223.425 223.732 223.665V220.065C223.732 216.985 223.732 216.985 221.732 215.865V215.305C223.932 214.705 226.892 214.065 229.372 213.865C229.212 215.465 229.132 216.825 229.132 218.665V236.505ZM220.692 238.985C221.732 238.985 222.692 238.545 223.732 237.745V231.185C223.732 226.585 222.532 224.625 220.452 224.625C218.172 224.625 217.092 227.305 217.092 232.545C217.092 237.465 218.732 238.985 220.692 238.985ZM248.049 235.945L248.609 236.465C248.369 237.265 247.089 242.225 241.369 242.225C236.649 242.225 233.129 239.185 233.129 233.145C233.129 226.265 237.249 223.345 241.409 223.345C246.409 223.345 248.449 226.065 248.449 230.585L247.929 231.065H238.129V231.225C238.129 235.425 239.849 238.185 243.529 238.185C246.209 238.185 247.489 236.385 248.049 235.945ZM241.169 224.705C239.369 224.705 238.369 226.265 238.169 229.865H243.649C243.649 226.625 243.089 224.705 241.169 224.705ZM262.273 223.345C263.753 223.345 264.353 224.145 264.353 225.785C264.353 227.105 263.793 227.865 263.353 228.265C262.993 228.065 262.193 227.905 261.153 227.905C260.233 227.905 258.793 228.225 257.793 229.305V237.505C257.793 240.345 257.793 240.345 260.353 240.705V241.705H250.553V240.705C252.393 240.345 252.393 240.345 252.393 237.505V229.625C252.393 226.545 252.393 226.545 250.393 225.425V224.825C252.553 224.225 255.553 223.585 257.793 223.385L257.313 228.225L257.593 228.385C258.873 225.745 260.113 223.345 262.273 223.345ZM294.042 235.745C295.762 238.785 296.642 240.105 298.762 240.625V241.785C296.482 241.865 294.642 241.905 293.202 241.905C291.282 241.905 290.162 240.705 288.962 238.465L284.842 230.665H282.242V237.425C282.242 240.265 282.242 240.265 285.002 240.625V241.705H273.722V240.625C276.482 240.265 276.482 240.265 276.482 237.425V220.065C276.482 217.225 276.482 217.225 273.722 216.865V215.785H284.442C292.682 215.785 295.922 217.625 295.922 222.105C295.922 226.265 293.242 228.465 290.482 229.465L294.042 235.745ZM282.242 217.105V229.305H284.842C288.082 229.305 289.722 227.385 289.722 222.665C289.722 218.665 287.802 217.105 284.482 217.105H282.242ZM314.494 235.945L315.054 236.465C314.814 237.265 313.534 242.225 307.814 242.225C303.094 242.225 299.574 239.185 299.574 233.145C299.574 226.265 303.694 223.345 307.854 223.345C312.854 223.345 314.894 226.065 314.894 230.585L314.374 231.065H304.574V231.225C304.574 235.425 306.294 238.185 309.974 238.185C312.654 238.185 313.934 236.385 314.494 235.945ZM307.614 224.705C305.814 224.705 304.814 226.265 304.614 229.865H310.094C310.094 226.625 309.534 224.705 307.614 224.705ZM334.639 225.825L331.839 225.785L331.679 225.985C332.679 226.665 333.359 227.905 333.359 229.705C333.359 234.545 329.199 236.385 325.359 236.385C324.039 236.385 322.679 236.225 321.479 235.785C320.439 236.025 320.159 236.585 320.159 237.585C320.159 238.705 320.919 239.185 322.759 239.185H328.239C333.119 239.185 335.319 240.985 335.319 244.625C335.319 248.985 331.319 251.185 325.839 251.185C319.999 251.185 316.599 249.865 316.599 246.985C316.599 244.865 318.439 243.905 320.559 243.865V243.505C318.239 243.385 316.639 241.705 316.639 239.585C316.639 237.025 318.279 235.665 320.399 235.345C318.679 234.425 317.439 232.825 317.439 230.185C317.439 225.065 321.679 223.345 325.519 223.345C328.039 223.345 328.879 223.785 331.359 223.785C332.479 223.785 333.679 223.625 335.519 223.385L335.799 223.585C335.759 223.985 335.679 224.345 335.519 224.785C335.359 225.225 335.039 225.785 334.639 225.825ZM325.519 235.065C327.479 235.065 327.959 233.225 327.959 230.185C327.959 226.705 327.319 224.665 325.359 224.665C323.399 224.665 322.839 226.505 322.839 229.585C322.839 233.025 323.559 235.065 325.519 235.065ZM321.679 243.825C320.999 244.465 320.759 245.225 320.759 246.225C320.759 248.305 322.519 249.625 326.159 249.585C329.519 249.545 331.159 248.385 331.159 246.425C331.159 244.865 330.159 243.825 326.879 243.825H321.679ZM341.09 220.905C339.41 220.905 338.17 219.585 338.17 218.105C338.17 216.425 339.41 215.185 341.09 215.185C342.65 215.185 343.85 216.425 343.85 218.105C343.85 219.585 342.65 220.905 341.09 220.905ZM336.53 241.705V240.705C338.37 240.345 338.37 240.345 338.37 237.505V229.625C338.37 226.545 338.37 226.545 336.37 225.425V224.825C338.53 224.225 341.53 223.585 343.97 223.385C343.81 225.025 343.77 226.385 343.77 228.185V237.505C343.77 240.345 343.77 240.345 345.57 240.705V241.705H336.53ZM347.984 229.385C347.824 225.545 350.784 223.345 355.504 223.345C358.024 223.345 359.744 223.865 360.504 224.185C360.664 224.745 360.664 227.945 360.504 229.025H359.664C359.024 227.745 358.064 224.705 355.064 224.705C353.784 224.705 352.704 225.345 352.704 226.785C352.704 230.985 361.904 230.105 361.904 235.945C361.904 239.985 358.944 242.225 354.664 242.225C351.384 242.225 349.384 241.665 348.384 241.265C348.224 240.065 348.144 238.145 348.264 236.665H349.144C350.464 238.745 351.944 240.905 354.584 240.905C356.144 240.905 357.184 240.025 357.184 238.425C357.184 234.145 348.184 235.545 347.984 229.385ZM375.31 238.905L375.59 239.465C374.51 240.945 372.55 242.225 370.11 242.225C366.79 242.225 365.55 240.465 365.59 236.505L365.63 225.225H363.51V224.345C366.55 223.465 368.83 221.945 370.47 218.985H371.15C371.11 220.265 371.07 221.665 371.03 223.945H375.27V225.225H371.03C370.99 226.585 370.99 228.225 370.99 230.225V235.385C370.99 238.465 371.75 239.265 373.19 239.265C374.35 239.265 374.91 239.065 375.31 238.905ZM388.641 223.345C390.121 223.345 390.721 224.145 390.721 225.785C390.721 227.105 390.161 227.865 389.721 228.265C389.361 228.065 388.561 227.905 387.521 227.905C386.601 227.905 385.161 228.225 384.161 229.305V237.505C384.161 240.345 384.161 240.345 386.721 240.705V241.705H376.921V240.705C378.761 240.345 378.761 240.345 378.761 237.505V229.625C378.761 226.545 378.761 226.545 376.761 225.425V224.825C378.921 224.225 381.921 223.585 384.161 223.385L383.681 228.225L383.961 228.385C385.241 225.745 386.481 223.345 388.641 223.345ZM409.93 239.345L410.25 239.905C409.17 241.185 407.73 242.225 405.85 242.225C403.77 242.225 402.33 241.265 402.05 239.145C400.73 240.985 399.05 242.225 396.53 242.225C393.65 242.225 391.69 240.305 391.69 237.785C391.69 233.785 395.69 232.865 399.85 231.385L402.01 230.625V229.025C402.01 225.705 401.33 224.705 399.61 224.705C398.33 224.705 397.53 225.265 397.81 229.545C395.77 229.865 392.89 229.985 392.89 227.505C392.89 225.305 395.69 223.345 400.29 223.345C405.25 223.345 407.41 224.465 407.41 229.425V236.945C407.41 239.305 407.93 239.705 408.77 239.705C409.25 239.705 409.73 239.425 409.93 239.345ZM399.33 239.185C400.45 239.185 401.29 238.825 402.01 237.985V232.105L400.85 232.545C398.77 233.305 397.33 234.105 397.25 236.465C397.21 238.105 398.21 239.185 399.33 239.185ZM422.966 238.905L423.246 239.465C422.166 240.945 420.206 242.225 417.766 242.225C414.446 242.225 413.206 240.465 413.246 236.505L413.286 225.225H411.166V224.345C414.206 223.465 416.486 221.945 418.126 218.985H418.806C418.766 220.265 418.726 221.665 418.686 223.945H422.926V225.225H418.686C418.646 226.585 418.646 228.225 418.646 230.225V235.385C418.646 238.465 419.406 239.265 420.846 239.265C422.006 239.265 422.566 239.065 422.966 238.905ZM429.137 220.905C427.457 220.905 426.217 219.585 426.217 218.105C426.217 216.425 427.457 215.185 429.137 215.185C430.697 215.185 431.897 216.425 431.897 218.105C431.897 219.585 430.697 220.905 429.137 220.905ZM424.577 241.705V240.705C426.417 240.345 426.417 240.345 426.417 237.505V229.625C426.417 226.545 426.417 226.545 424.417 225.425V224.825C426.577 224.225 429.577 223.585 432.017 223.385C431.857 225.025 431.817 226.385 431.817 228.185V237.505C431.817 240.345 431.817 240.345 433.617 240.705V241.705H424.577ZM444.631 242.225C439.151 242.225 435.551 239.985 435.551 233.145C435.551 226.185 439.591 223.305 444.951 223.305C450.111 223.305 453.791 225.305 453.791 232.265C453.791 239.185 449.831 242.225 444.631 242.225ZM444.951 240.905C447.071 240.905 448.031 238.945 448.031 232.785C448.031 227.065 446.711 224.665 444.511 224.665C442.271 224.665 441.311 226.745 441.311 232.705C441.311 238.585 442.711 240.905 444.951 240.905ZM474.459 237.505C474.459 240.345 474.459 240.345 476.259 240.705V241.705H467.219V240.705C469.059 240.385 469.059 240.385 469.059 237.545V231.145C469.059 228.145 468.299 226.585 466.259 226.585C465.339 226.585 464.379 226.985 463.379 227.785V237.505C463.379 240.345 463.379 240.345 465.179 240.705V241.705H456.139V240.705C457.939 240.345 457.979 240.345 457.979 237.505V229.625C457.979 226.545 457.979 226.545 455.979 225.425V224.825C458.139 224.225 461.139 223.585 463.379 223.385L462.979 226.865L463.219 227.025C464.419 225.345 466.619 223.345 469.539 223.345C472.499 223.345 474.459 225.105 474.459 228.865V237.505Z" fill="#0C342C"/>
<path d="M178.481 411.432C178.721 414.072 178.841 414.272 181.161 414.632V415.712H170.521V414.632C173.001 414.272 173.081 414.272 172.801 411.432L171.321 395.992L163.361 415.872H162.761L155.801 396.512L155.481 400.272C155.201 403.432 154.961 407.072 154.761 410.752C154.601 413.992 155.001 414.272 157.721 414.632V415.712H149.561V414.632C152.121 414.272 152.281 414.032 152.641 411.432C153.121 407.232 153.561 403.872 153.961 399.992L154.441 395.272C154.761 392.392 154.041 391.752 151.841 390.872V389.792H159.441L165.401 407.352L171.721 389.792H179.361V390.872C176.721 391.232 176.601 391.232 176.881 394.112L178.481 411.432ZM197.893 409.952L198.453 410.472C198.213 411.272 196.933 416.232 191.213 416.232C186.493 416.232 182.973 413.192 182.973 407.152C182.973 400.272 187.093 397.352 191.253 397.352C196.253 397.352 198.293 400.072 198.293 404.592L197.773 405.072H187.973V405.232C187.973 409.432 189.693 412.192 193.373 412.192C196.053 412.192 197.333 410.392 197.893 409.952ZM191.013 398.712C189.213 398.712 188.213 400.272 188.013 403.872H193.493C193.493 400.632 192.933 398.712 191.013 398.712ZM229.757 411.512C229.757 414.352 229.757 414.352 231.597 414.712V415.712H222.557V414.712C224.357 414.392 224.357 414.392 224.357 411.552V405.152C224.357 402.152 223.597 400.592 221.557 400.592C220.637 400.592 219.677 401.032 218.677 401.832C218.717 402.152 218.717 402.512 218.717 402.872V411.512C218.717 414.352 218.717 414.352 220.517 414.712V415.712H211.477V414.712C213.317 414.392 213.317 414.392 213.317 411.552V405.152C213.317 402.152 212.557 400.592 210.517 400.592C209.597 400.592 208.637 400.992 207.637 401.792V411.512C207.637 414.352 207.637 414.352 209.437 414.712V415.712H200.397V414.712C202.197 414.352 202.237 414.352 202.237 411.512V403.632C202.237 400.552 202.237 400.552 200.237 399.432V398.832C202.397 398.232 205.397 397.592 207.637 397.392L207.237 400.872L207.477 401.032C208.677 399.352 210.877 397.352 213.797 397.352C216.197 397.352 217.957 398.512 218.517 400.992C219.757 399.352 221.917 397.352 224.837 397.352C227.797 397.352 229.757 399.112 229.757 402.872V411.512ZM246.44 397.352C249.96 397.352 252.84 399.512 252.84 405.912C252.84 413.472 248.2 416.232 243.52 416.232C240.96 416.232 239.04 415.592 237.76 414.632L235.6 416.232L235 416.032V394.072C235 390.992 235 390.992 233 389.872V389.312C235.2 388.712 238.16 388.072 240.64 387.872C240.48 389.472 240.4 390.832 240.4 392.672V400.752C241.72 399.152 243.72 397.352 246.44 397.352ZM243.68 414.872C246 414.872 247.04 412.192 247.04 406.952C247.04 402.112 245.4 400.592 243.48 400.592C242.4 400.592 241.44 401.032 240.4 401.832V408.352C240.4 412.912 241.64 414.872 243.68 414.872ZM270.002 409.952L270.562 410.472C270.322 411.272 269.042 416.232 263.322 416.232C258.602 416.232 255.082 413.192 255.082 407.152C255.082 400.272 259.202 397.352 263.362 397.352C268.362 397.352 270.402 400.072 270.402 404.592L269.882 405.072H260.082V405.232C260.082 409.432 261.802 412.192 265.482 412.192C268.162 412.192 269.442 410.392 270.002 409.952ZM263.122 398.712C261.322 398.712 260.322 400.272 260.122 403.872H265.602C265.602 400.632 265.042 398.712 263.122 398.712ZM284.227 397.352C285.707 397.352 286.307 398.152 286.307 399.792C286.307 401.112 285.747 401.872 285.307 402.272C284.947 402.072 284.147 401.912 283.107 401.912C282.187 401.912 280.747 402.232 279.747 403.312V411.512C279.747 414.352 279.747 414.352 282.307 414.712V415.712H272.507V414.712C274.347 414.352 274.347 414.352 274.347 411.512V403.632C274.347 400.552 274.347 400.552 272.347 399.432V398.832C274.507 398.232 277.507 397.592 279.747 397.392L279.267 402.232L279.547 402.392C280.827 399.752 282.067 397.352 284.227 397.352ZM315.995 409.752C317.715 412.792 318.595 414.112 320.715 414.632V415.792C318.435 415.872 316.595 415.912 315.155 415.912C313.235 415.912 312.115 414.712 310.915 412.472L306.795 404.672H304.195V411.432C304.195 414.272 304.195 414.272 306.955 414.632V415.712H295.675V414.632C298.435 414.272 298.435 414.272 298.435 411.432V394.072C298.435 391.232 298.435 391.232 295.675 390.872V389.792H306.395C314.635 389.792 317.875 391.632 317.875 396.112C317.875 400.272 315.195 402.472 312.435 403.472L315.995 409.752ZM304.195 391.112V403.312H306.795C310.035 403.312 311.675 401.392 311.675 396.672C311.675 392.672 309.755 391.112 306.435 391.112H304.195ZM336.447 409.952L337.007 410.472C336.767 411.272 335.487 416.232 329.767 416.232C325.047 416.232 321.527 413.192 321.527 407.152C321.527 400.272 325.647 397.352 329.807 397.352C334.807 397.352 336.847 400.072 336.847 404.592L336.327 405.072H326.527V405.232C326.527 409.432 328.247 412.192 331.927 412.192C334.607 412.192 335.887 410.392 336.447 409.952ZM329.567 398.712C327.767 398.712 326.767 400.272 326.567 403.872H332.047C332.047 400.632 331.487 398.712 329.567 398.712ZM356.592 399.832L353.792 399.792L353.632 399.992C354.632 400.672 355.312 401.912 355.312 403.712C355.312 408.552 351.152 410.392 347.312 410.392C345.992 410.392 344.632 410.232 343.432 409.792C342.392 410.032 342.112 410.592 342.112 411.592C342.112 412.712 342.872 413.192 344.712 413.192H350.192C355.072 413.192 357.272 414.992 357.272 418.632C357.272 422.992 353.272 425.192 347.792 425.192C341.952 425.192 338.552 423.872 338.552 420.992C338.552 418.872 340.392 417.912 342.512 417.872V417.512C340.192 417.392 338.592 415.712 338.592 413.592C338.592 411.032 340.232 409.672 342.352 409.352C340.632 408.432 339.392 406.832 339.392 404.192C339.392 399.072 343.632 397.352 347.472 397.352C349.992 397.352 350.832 397.792 353.312 397.792C354.432 397.792 355.632 397.632 357.472 397.392L357.752 397.592C357.712 397.992 357.632 398.352 357.472 398.792C357.312 399.232 356.992 399.792 356.592 399.832ZM347.472 409.072C349.432 409.072 349.912 407.232 349.912 404.192C349.912 400.712 349.272 398.672 347.312 398.672C345.352 398.672 344.792 400.512 344.792 403.592C344.792 407.032 345.512 409.072 347.472 409.072ZM343.632 417.832C342.952 418.472 342.712 419.232 342.712 420.232C342.712 422.312 344.472 423.632 348.112 423.592C351.472 423.552 353.112 422.392 353.112 420.432C353.112 418.872 352.112 417.832 348.832 417.832H343.632ZM363.043 394.912C361.363 394.912 360.123 393.592 360.123 392.112C360.123 390.432 361.363 389.192 363.043 389.192C364.603 389.192 365.803 390.432 365.803 392.112C365.803 393.592 364.603 394.912 363.043 394.912ZM358.483 415.712V414.712C360.323 414.352 360.323 414.352 360.323 411.512V403.632C360.323 400.552 360.323 400.552 358.323 399.432V398.832C360.483 398.232 363.483 397.592 365.923 397.392C365.763 399.032 365.723 400.392 365.723 402.192V411.512C365.723 414.352 365.723 414.352 367.523 414.712V415.712H358.483ZM369.937 403.392C369.777 399.552 372.737 397.352 377.457 397.352C379.977 397.352 381.697 397.872 382.457 398.192C382.617 398.752 382.617 401.952 382.457 403.032H381.617C380.977 401.752 380.017 398.712 377.017 398.712C375.737 398.712 374.657 399.352 374.657 400.792C374.657 404.992 383.857 404.112 383.857 409.952C383.857 413.992 380.897 416.232 376.617 416.232C373.337 416.232 371.337 415.672 370.337 415.272C370.177 414.072 370.097 412.152 370.217 410.672H371.097C372.417 412.752 373.897 414.912 376.537 414.912C378.097 414.912 379.137 414.032 379.137 412.432C379.137 408.152 370.137 409.552 369.937 403.392ZM397.263 412.912L397.543 413.472C396.463 414.952 394.503 416.232 392.063 416.232C388.743 416.232 387.503 414.472 387.543 410.512L387.583 399.232H385.463V398.352C388.503 397.472 390.783 395.952 392.423 392.992H393.103C393.063 394.272 393.023 395.672 392.983 397.952H397.223V399.232H392.983C392.943 400.592 392.943 402.232 392.943 404.232V409.392C392.943 412.472 393.703 413.272 395.143 413.272C396.303 413.272 396.863 413.072 397.263 412.912ZM410.594 397.352C412.074 397.352 412.674 398.152 412.674 399.792C412.674 401.112 412.114 401.872 411.674 402.272C411.314 402.072 410.514 401.912 409.474 401.912C408.554 401.912 407.114 402.232 406.114 403.312V411.512C406.114 414.352 406.114 414.352 408.674 414.712V415.712H398.874V414.712C400.714 414.352 400.714 414.352 400.714 411.512V403.632C400.714 400.552 400.714 400.552 398.714 399.432V398.832C400.874 398.232 403.874 397.592 406.114 397.392L405.634 402.232L405.914 402.392C407.194 399.752 408.434 397.352 410.594 397.352ZM431.883 413.352L432.203 413.912C431.123 415.192 429.683 416.232 427.803 416.232C425.723 416.232 424.283 415.272 424.003 413.152C422.683 414.992 421.003 416.232 418.483 416.232C415.603 416.232 413.643 414.312 413.643 411.792C413.643 407.792 417.643 406.872 421.803 405.392L423.963 404.632V403.032C423.963 399.712 423.283 398.712 421.563 398.712C420.283 398.712 419.483 399.272 419.763 403.552C417.723 403.872 414.843 403.992 414.843 401.512C414.843 399.312 417.643 397.352 422.243 397.352C427.203 397.352 429.363 398.472 429.363 403.432V410.952C429.363 413.312 429.883 413.712 430.723 413.712C431.203 413.712 431.683 413.432 431.883 413.352ZM421.283 413.192C422.403 413.192 423.243 412.832 423.963 411.992V406.112L422.803 406.552C420.723 407.312 419.283 408.112 419.203 410.472C419.163 412.112 420.163 413.192 421.283 413.192ZM444.919 412.912L445.199 413.472C444.119 414.952 442.159 416.232 439.719 416.232C436.399 416.232 435.159 414.472 435.199 410.512L435.239 399.232H433.119V398.352C436.159 397.472 438.439 395.952 440.079 392.992H440.759C440.719 394.272 440.679 395.672 440.639 397.952H444.879V399.232H440.639C440.599 400.592 440.599 402.232 440.599 404.232V409.392C440.599 412.472 441.359 413.272 442.799 413.272C443.959 413.272 444.519 413.072 444.919 412.912ZM451.09 394.912C449.41 394.912 448.17 393.592 448.17 392.112C448.17 390.432 449.41 389.192 451.09 389.192C452.65 389.192 453.85 390.432 453.85 392.112C453.85 393.592 452.65 394.912 451.09 394.912ZM446.53 415.712V414.712C448.37 414.352 448.37 414.352 448.37 411.512V403.632C448.37 400.552 448.37 400.552 446.37 399.432V398.832C448.53 398.232 451.53 397.592 453.97 397.392C453.81 399.032 453.77 400.392 453.77 402.192V411.512C453.77 414.352 453.77 414.352 455.57 414.712V415.712H446.53ZM466.584 416.232C461.104 416.232 457.504 413.992 457.504 407.152C457.504 400.192 461.544 397.312 466.904 397.312C472.064 397.312 475.744 399.312 475.744 406.272C475.744 413.192 471.784 416.232 466.584 416.232ZM466.904 414.912C469.024 414.912 469.984 412.952 469.984 406.792C469.984 401.072 468.664 398.672 466.464 398.672C464.224 398.672 463.264 400.752 463.264 406.712C463.264 412.592 464.664 414.912 466.904 414.912ZM496.413 411.512C496.413 414.352 496.413 414.352 498.213 414.712V415.712H489.173V414.712C491.013 414.392 491.013 414.392 491.013 411.552V405.152C491.013 402.152 490.253 400.592 488.213 400.592C487.293 400.592 486.333 400.992 485.333 401.792V411.512C485.333 414.352 485.333 414.352 487.133 414.712V415.712H478.093V414.712C479.893 414.352 479.933 414.352 479.933 411.512V403.632C479.933 400.552 479.933 400.552 477.933 399.432V398.832C480.093 398.232 483.093 397.592 485.333 397.392L484.933 400.872L485.173 401.032C486.373 399.352 488.573 397.352 491.493 397.352C494.453 397.352 496.413 399.112 496.413 402.872V411.512Z" fill="#0C342C"/>
<path d="M162.361 601.975C157.801 601.975 154.801 601.255 153.761 600.695C153.681 599.135 153.641 595.415 153.721 594.415H154.721C156.161 598.615 158.201 600.575 162.281 600.575C164.881 600.575 166.921 599.375 166.921 596.855C166.921 590.135 153.121 591.535 153.121 582.735C153.121 578.015 156.561 575.215 162.201 575.215C165.921 575.215 169.001 575.815 170.081 576.375C170.161 577.935 170.201 581.695 170.121 582.575H169.081C167.681 578.455 165.521 576.615 162.321 576.615C159.961 576.615 158.201 577.855 158.201 580.255C158.201 586.895 171.961 585.815 171.961 594.415C171.961 599.095 167.921 601.975 162.361 601.975ZM191.951 596.255C191.951 599.335 191.951 599.335 193.951 600.455V601.055C192.911 601.295 188.271 601.775 186.551 601.775L186.951 598.455L186.711 598.335C185.511 599.975 183.311 601.975 180.391 601.975C177.631 601.975 175.671 600.255 175.671 596.455V589.375C175.671 586.295 175.671 586.295 173.671 585.175V584.575C175.871 583.975 178.831 583.335 181.311 583.135C181.151 584.775 181.071 586.135 181.071 587.935V594.175C181.071 597.175 181.831 598.735 183.671 598.735C184.631 598.735 185.551 598.295 186.551 597.495V589.375C186.551 586.295 186.551 586.295 184.591 585.175V584.575C186.791 583.975 189.791 583.335 192.191 583.135C192.031 584.775 191.951 586.135 191.951 587.935V596.255ZM208.909 583.095C212.429 583.095 215.309 585.255 215.309 591.655C215.309 599.215 210.669 601.975 205.989 601.975C203.429 601.975 201.509 601.335 200.229 600.375L198.069 601.975L197.469 601.775V579.815C197.469 576.735 197.469 576.735 195.469 575.615V575.055C197.669 574.455 200.629 573.815 203.109 573.615C202.949 575.215 202.869 576.575 202.869 578.415V586.495C204.189 584.895 206.189 583.095 208.909 583.095ZM206.149 600.615C208.469 600.615 209.509 597.935 209.509 592.695C209.509 587.855 207.869 586.335 205.949 586.335C204.869 586.335 203.909 586.775 202.869 587.575V594.095C202.869 598.655 204.109 600.615 206.149 600.615ZM247.031 597.255C247.031 600.095 247.031 600.095 248.871 600.455V601.455H239.831V600.455C241.631 600.135 241.631 600.135 241.631 597.295V590.895C241.631 587.895 240.871 586.335 238.831 586.335C237.911 586.335 236.951 586.775 235.951 587.575C235.991 587.895 235.991 588.255 235.991 588.615V597.255C235.991 600.095 235.991 600.095 237.791 600.455V601.455H228.751V600.455C230.591 600.135 230.591 600.135 230.591 597.295V590.895C230.591 587.895 229.831 586.335 227.791 586.335C226.871 586.335 225.911 586.735 224.911 587.535V597.255C224.911 600.095 224.911 600.095 226.711 600.455V601.455H217.671V600.455C219.471 600.095 219.511 600.095 219.511 597.255V589.375C219.511 586.295 219.511 586.295 217.511 585.175V584.575C219.671 583.975 222.671 583.335 224.911 583.135L224.511 586.615L224.751 586.775C225.951 585.095 228.151 583.095 231.071 583.095C233.471 583.095 235.231 584.255 235.791 586.735C237.031 585.095 239.191 583.095 242.111 583.095C245.071 583.095 247.031 584.855 247.031 588.615V597.255ZM255.434 580.655C253.754 580.655 252.514 579.335 252.514 577.855C252.514 576.175 253.754 574.935 255.434 574.935C256.994 574.935 258.194 576.175 258.194 577.855C258.194 579.335 256.994 580.655 255.434 580.655ZM250.874 601.455V600.455C252.714 600.095 252.714 600.095 252.714 597.255V589.375C252.714 586.295 252.714 586.295 250.714 585.175V584.575C252.874 583.975 255.874 583.335 258.314 583.135C258.154 584.775 258.114 586.135 258.114 587.935V597.255C258.114 600.095 258.114 600.095 259.914 600.455V601.455H250.874ZM262.328 589.135C262.168 585.295 265.128 583.095 269.848 583.095C272.368 583.095 274.088 583.615 274.848 583.935C275.008 584.495 275.008 587.695 274.848 588.775H274.008C273.368 587.495 272.408 584.455 269.408 584.455C268.128 584.455 267.048 585.095 267.048 586.535C267.048 590.735 276.248 589.855 276.248 595.695C276.248 599.735 273.288 601.975 269.008 601.975C265.728 601.975 263.728 601.415 262.728 601.015C262.568 599.815 262.488 597.895 262.608 596.415H263.488C264.808 598.495 266.288 600.655 268.928 600.655C270.488 600.655 271.528 599.775 271.528 598.175C271.528 593.895 262.528 595.295 262.328 589.135ZM278.734 589.135C278.574 585.295 281.534 583.095 286.254 583.095C288.774 583.095 290.494 583.615 291.254 583.935C291.414 584.495 291.414 587.695 291.254 588.775H290.414C289.774 587.495 288.814 584.455 285.814 584.455C284.534 584.455 283.454 585.095 283.454 586.535C283.454 590.735 292.654 589.855 292.654 595.695C292.654 599.735 289.694 601.975 285.414 601.975C282.134 601.975 280.134 601.415 279.134 601.015C278.974 599.815 278.894 597.895 279.014 596.415H279.894C281.214 598.495 282.694 600.655 285.334 600.655C286.894 600.655 287.934 599.775 287.934 598.175C287.934 593.895 278.934 595.295 278.734 589.135ZM299.34 580.655C297.66 580.655 296.42 579.335 296.42 577.855C296.42 576.175 297.66 574.935 299.34 574.935C300.9 574.935 302.1 576.175 302.1 577.855C302.1 579.335 300.9 580.655 299.34 580.655ZM294.78 601.455V600.455C296.62 600.095 296.62 600.095 296.62 597.255V589.375C296.62 586.295 296.62 586.295 294.62 585.175V584.575C296.78 583.975 299.78 583.335 302.22 583.135C302.06 584.775 302.02 586.135 302.02 587.935V597.255C302.02 600.095 302.02 600.095 303.82 600.455V601.455H294.78ZM314.834 601.975C309.354 601.975 305.754 599.735 305.754 592.895C305.754 585.935 309.794 583.055 315.154 583.055C320.314 583.055 323.994 585.055 323.994 592.015C323.994 598.935 320.034 601.975 314.834 601.975ZM315.154 600.655C317.274 600.655 318.234 598.695 318.234 592.535C318.234 586.815 316.914 584.415 314.714 584.415C312.474 584.415 311.514 586.495 311.514 592.455C311.514 598.335 312.914 600.655 315.154 600.655ZM344.663 597.255C344.663 600.095 344.663 600.095 346.463 600.455V601.455H337.423V600.455C339.263 600.135 339.263 600.135 339.263 597.295V590.895C339.263 587.895 338.503 586.335 336.463 586.335C335.543 586.335 334.583 586.735 333.583 587.535V597.255C333.583 600.095 333.583 600.095 335.383 600.455V601.455H326.343V600.455C328.143 600.095 328.183 600.095 328.183 597.255V589.375C328.183 586.295 328.183 586.295 326.183 585.175V584.575C328.343 583.975 331.343 583.335 333.583 583.135L333.183 586.615L333.423 586.775C334.623 585.095 336.823 583.095 339.743 583.095C342.703 583.095 344.663 584.855 344.663 588.615V597.255Z" fill="#0C342C"/>
<defs>
<linearGradient id="paint0_linear_2731_1090" x1="217.978" y1="15.9073" x2="218.164" y2="29.5287" gradientUnits="userSpaceOnUse">
<stop stop-color="#06231D"/>
<stop offset="0.5" stop-color="#0C342C"/>
<stop offset="1" stop-color="#076653"/>
</linearGradient>
<linearGradient id="paint1_linear_2731_1090" x1="308.454" y1="15.0968" x2="308.133" y2="30.8562" gradientUnits="userSpaceOnUse">
<stop stop-color="#FFFDEE"/>
<stop offset="1" stop-color="#E3EF26"/>
</linearGradient>
<linearGradient id="paint2_linear_2731_1090" x1="95.9146" y1="171.564" x2="96.4759" y2="185.165" gradientUnits="userSpaceOnUse">
<stop stop-color="#06231D"/>
<stop offset="0.5" stop-color="#0C342C"/>
<stop offset="1" stop-color="#076653"/>
</linearGradient>
<linearGradient id="paint3_linear_2731_1090" x1="90.9963" y1="27.0259" x2="91.6076" y2="40.6225" gradientUnits="userSpaceOnUse">
<stop stop-color="#06231D"/>
<stop offset="0.5" stop-color="#0C342C"/>
<stop offset="1" stop-color="#076653"/>
</linearGradient>
<linearGradient id="paint4_linear_2731_1090" x1="127.472" y1="95.9415" x2="109.756" y2="-11.4004" gradientUnits="userSpaceOnUse">
<stop stop-color="#FFFDEE"/>
<stop offset="1" stop-color="#E3EF26"/>
</linearGradient>
<linearGradient id="paint5_linear_2731_1090" x1="128.777" y1="228.82" x2="52.4563" y2="279.624" gradientUnits="userSpaceOnUse">
<stop stop-color="#06231D"/>
<stop offset="0.5" stop-color="#0C342C"/>
<stop offset="1" stop-color="#076653"/>
</linearGradient>
<linearGradient id="paint6_linear_2731_1090" x1="127.776" y1="400.828" x2="51.4554" y2="451.632" gradientUnits="userSpaceOnUse">
<stop stop-color="#06231D"/>
<stop offset="0.5" stop-color="#0C342C"/>
<stop offset="1" stop-color="#076653"/>
</linearGradient>
<linearGradient id="paint7_linear_2731_1090" x1="127.778" y1="586.571" x2="51.4573" y2="637.375" gradientUnits="userSpaceOnUse">
<stop stop-color="#06231D"/>
<stop offset="0.5" stop-color="#0C342C"/>
<stop offset="1" stop-color="#076653"/>
</linearGradient>
</defs>
</svg>
